<?xml version="1.0" encoding="UTF-8"?>
<svg version="1.1" xmlns="http://www.w3.org/2000/svg" width="500" height="500">
<path d="M0 0 C3.53414073 0.28273126 3.90089383 0.72260663 6.125 3.25 C7.45296291 3.60412344 8.78716607 3.93521554 10.125 4.25 C12.875 5.6875 12.875 5.6875 15.125 7.25 C15.125 7.91 15.125 8.57 15.125 9.25 C16.20136719 9.4665625 17.27773438 9.683125 18.38671875 9.90625 C24.25888382 11.37590841 29.52550181 14.09376246 34.9375 16.75 C35.97326172 17.24886719 37.00902344 17.74773437 38.07617188 18.26171875 C45.64807478 21.93204985 45.64807478 21.93204985 49.125 24.25 C51.07966382 25.34606952 51.07966382 25.34606952 53.25 25.625 C57.05505759 26.45218643 60.49710841 27.83573718 64.125 29.25 C64.125 29.91 64.125 30.57 64.125 31.25 C65.135625 31.311875 66.14625 31.37375 67.1875 31.4375 C74.07610802 32.25964852 80.61688527 34.95351681 87.125 37.25 C87.125 37.91 87.125 38.57 87.125 39.25 C89.105 39.25 91.085 39.25 93.125 39.25 C93.125 39.91 93.125 40.57 93.125 41.25 C95.435 41.25 97.745 41.25 100.125 41.25 C100.125 41.91 100.125 42.57 100.125 43.25 C102.435 43.25 104.745 43.25 107.125 43.25 C107.125 43.91 107.125 44.57 107.125 45.25 C114.30359349 47.29061541 120.65105426 48.62369729 128.125 48.25 C128.125 48.91 128.125 49.57 128.125 50.25 C145.38764235 53.66122931 162.60653437 56.53570467 180.125 58.25 C181.02114014 58.34498779 181.91728027 58.43997559 182.84057617 58.5378418 C194.75258916 59.64489136 206.73466861 59.53562126 218.6875 59.5625 C219.87954041 59.56578308 221.07158081 59.56906616 222.29974365 59.57244873 C246.98171537 59.59437649 270.81949743 57.48026198 295.125 53.25 C295.125 52.59 295.125 51.93 295.125 51.25 C296.15947266 51.15912109 296.15947266 51.15912109 297.21484375 51.06640625 C299.19054078 50.89024671 301.16577884 50.7088926 303.140625 50.5234375 C304.85792513 50.36609325 306.57639533 50.21914924 308.296875 50.1015625 C316.08624146 49.4675443 323.59333128 47.23688193 331.125 45.25 C331.125 44.59 331.125 43.93 331.125 43.25 C333.435 43.25 335.745 43.25 338.125 43.25 C338.125 42.59 338.125 41.93 338.125 41.25 C338.74246094 41.12882812 339.35992187 41.00765625 339.99609375 40.8828125 C342.70734824 40.34633901 345.41630869 39.7992624 348.125 39.25 C348.970625 39.08242188 349.81625 38.91484375 350.6875 38.7421875 C351.47125 38.57976562 352.255 38.41734375 353.0625 38.25 C353.77277344 38.105625 354.48304688 37.96125 355.21484375 37.8125 C357.42531296 37.26433943 357.42531296 37.26433943 360.125 35.25 C363.5602048 32.95986347 365.110331 33.07157027 369.125 33.25 C369.125 32.59 369.125 31.93 369.125 31.25 C372.63276784 29.64644899 375.26854879 29.02963136 379.125 29.25 C379.125 28.59 379.125 27.93 379.125 27.25 C384.48939644 24.56780178 388.13506953 23.9347405 394.125 24.25 C394.558125 25.1471875 394.558125 25.1471875 395 26.0625 C396.17242026 28.44327792 396.17242026 28.44327792 398.125 31.25 C397.82662581 35.12886444 396.57189058 37.29334055 394.125 40.25 C393.795 40.91 393.465 41.57 393.125 42.25 C391.64 42.745 391.64 42.745 390.125 43.25 C389.568125 43.8275 389.01125 44.405 388.4375 45 C384.28671267 49.03860389 379.74636744 51.88038717 374.125 53.25 C373.63 53.745 373.135 54.24 372.625 54.75 C371.125 56.25 371.125 56.25 369.25 56.6875 C366.9626074 57.13119754 366.9626074 57.13119754 365.0234375 59.01953125 C361.43981174 61.77728099 357.70851245 63.5957714 353.625 65.5 C352.87863281 65.86351562 352.13226563 66.22703125 351.36328125 66.6015625 C347.49771173 68.42145895 344.50183105 69.77105132 340.125 69.25 C340.125 69.91 340.125 70.57 340.125 71.25 C338.84625 71.37375 337.5675 71.4975 336.25 71.625 C332.77709064 71.94042399 332.77709064 71.94042399 330.125 74.25 C327.08974514 76.27350324 325.93073798 76.57124018 322.4375 76.875 C321.22513672 76.98714844 321.22513672 76.98714844 319.98828125 77.1015625 C319.37339844 77.15054688 318.75851562 77.19953125 318.125 77.25 C318.125 77.91 318.125 78.57 318.125 79.25 C313.62146738 81.00747614 309.94860189 81.44294408 305.125 81.25 C305.125 81.91 305.125 82.57 305.125 83.25 C304.0525 83.20875 302.98 83.1675 301.875 83.125 C298.46752515 83.2385825 296.91760369 83.46273364 294.125 85.25 C294.125 85.58 294.125 85.91 294.125 86.25 C292.20300781 86.19392578 292.20300781 86.19392578 290.2421875 86.13671875 C285.07436229 86.13974087 280.2959595 87.02642619 275.25 88.0625 C242.12193971 94.32089328 206.6015893 96.33538507 173.125 91.25 C172.12823242 91.09982422 171.13146484 90.94964844 170.10449219 90.79492188 C160.71895107 89.35099247 151.34751344 87.87882384 142.11938477 85.6171875 C139.96453681 85.22045702 138.00029341 85.19389631 135.8125 85.25 C132.30024285 85.25 130.97760807 85.08381947 128.125 83.25 C124.68625016 81.1867501 122.11741538 81.06852657 118.125 81.25 C118.125 80.59 118.125 79.93 118.125 79.25 C117.20267578 79.17652344 117.20267578 79.17652344 116.26171875 79.1015625 C115.45347656 79.02679688 114.64523438 78.95203125 113.8125 78.875 C113.01199219 78.80539062 112.21148437 78.73578125 111.38671875 78.6640625 C109.125 78.25 109.125 78.25 106.125 76.25 C104.64 75.755 104.64 75.755 103.125 75.25 C100.125 74.25 100.125 74.25 98.125 73.25 C96.9184375 73.0334375 96.9184375 73.0334375 95.6875 72.8125 C93.125 72.25 93.125 72.25 90.125 70.25 C88.1346873 69.12890871 88.1346873 69.12890871 85.75 68.875 C82.85820885 68.1864783 81.39098764 67.12530012 79.125 65.25 C77.15109536 64.13950805 77.15109536 64.13950805 74.86328125 63.87890625 C71.62841527 63.13594844 69.19638886 61.8205455 66.3125 60.1875 C65.33667969 59.63964844 64.36085938 59.09179688 63.35546875 58.52734375 C62.61941406 58.10582031 61.88335937 57.68429687 61.125 57.25 C61.125 56.59 61.125 55.93 61.125 55.25 C59.90490234 55.1571875 59.90490234 55.1571875 58.66015625 55.0625 C53.99165238 53.98951789 50.57581053 51.80003982 46.5625 49.25 C45.77689697 48.75959229 44.99129395 48.26918457 44.18188477 47.76391602 C24.7800333 35.5600666 24.7800333 35.5600666 23.125 32.25 C22.135 31.92 21.145 31.59 20.125 31.25 C19.795 30.59 19.465 29.93 19.125 29.25 C18.135 28.92 17.145 28.59 16.125 28.25 C15.795 27.59 15.465 26.93 15.125 26.25 C14.465 25.940625 13.805 25.63125 13.125 25.3125 C11.125 24.25 11.125 24.25 10.125 21.25 C9.485625 21.105625 8.84625 20.96125 8.1875 20.8125 C7.506875 20.626875 6.82625 20.44125 6.125 20.25 C5.45833333 18.91666667 4.79166667 17.58333333 4.125 16.25 C3.485625 16.105625 2.84625 15.96125 2.1875 15.8125 C0.125 15.25 0.125 15.25 -1.5625 12.75 C-1.995625 11.925 -2.42875 11.1 -2.875 10.25 C-3.205 9.92 -3.535 9.59 -3.875 9.25 C-4.0078125 7.4375 -4.0078125 7.4375 -4 5.25 C-4.00257812 4.528125 -4.00515625 3.80625 -4.0078125 3.0625 C-3.78395175 0.00745917 -3.09632423 0.26924559 0 0 Z M-1.875 1.25 C-1.875 1.58 -1.875 1.91 -1.875 2.25 C-0.225 2.25 1.425 2.25 3.125 2.25 C3.125 1.92 3.125 1.59 3.125 1.25 C1.475 1.25 -0.175 1.25 -1.875 1.25 Z M301.125 51.25 C305.125 52.25 305.125 52.25 305.125 52.25 Z " fill="#000000" transform="translate(33.875,332.75)"/>
<path d="M0 0 C0.97195312 -0.020625 1.94390625 -0.04125 2.9453125 -0.0625 C3.87859375 -0.06765625 4.811875 -0.0728125 5.7734375 -0.078125 C6.63114746 -0.0874707 7.48885742 -0.09681641 8.37255859 -0.10644531 C11.2149878 0.34336464 11.82663401 1.03056398 13.625 3.25 C17.65967219 13.27003491 19.76529357 24.33781159 22.390625 34.80078125 C22.83301948 36.55347479 23.2757128 38.30609292 23.71868896 40.05863953 C24.87239389 44.62636139 26.02209117 49.19508235 27.17089844 53.76403809 C28.34844778 58.4442251 29.52986511 63.12343543 30.7109375 67.80273438 C33.01936807 76.95088204 35.32355736 86.10009204 37.625 95.25 C39.63923044 94.80745364 39.63923044 94.80745364 41.625 93.25 C42.58934511 90.59131631 43.27736773 88.16610386 43.88330078 85.4230957 C44.17196518 84.21057381 44.17196518 84.21057381 44.46646118 82.97355652 C45.10019478 80.29439858 45.71017131 77.61040136 46.3203125 74.92578125 C46.75670658 73.06175593 47.1946247 71.1980868 47.63400269 69.33476257 C48.78874789 64.4203226 49.92368872 59.50151735 51.05432129 54.58148193 C52.20359493 49.59406994 53.36957905 44.6105757 54.53515625 39.62695312 C55.84675309 34.01899364 57.1569765 28.4107894 58.45169067 22.79890442 C58.65010559 21.94125488 58.84852051 21.08360535 59.052948 20.19996643 C59.42055936 18.61014181 59.78681669 17.02000315 60.15136719 15.42947388 C60.31661896 14.71595261 60.48187073 14.00243134 60.65213013 13.26728821 C60.86280215 12.35169616 60.86280215 12.35169616 61.07773018 11.41760731 C61.85413087 8.34246639 62.75368394 5.29960621 63.625 2.25 C76 1.755 76 1.755 88.625 1.25 C91.24071795 7.78929487 93.43155451 13.6525031 94.9909668 20.39990234 C95.19476959 21.25325165 95.39857239 22.10660095 95.60855103 22.98580933 C96.27102817 25.76752146 96.92269939 28.55164054 97.57421875 31.3359375 C98.03625415 33.285205 98.4989782 35.23430937 98.96235657 37.18325806 C100.17373117 42.28623942 101.37595693 47.39133232 102.57617188 52.49694824 C103.80119842 57.70107708 105.03468274 62.90319956 106.26757812 68.10546875 C108.25510557 76.49518416 110.23805615 84.88596255 112.21232605 93.27880859 C112.99643421 96.60787665 113.79018163 99.93329901 114.625 103.25 C115.06601799 101.5256498 115.06601799 101.5256498 115.51594543 99.76646423 C118.29047166 88.92132813 121.07093936 78.07773046 123.85719776 67.23560238 C125.28937191 61.66181456 126.71946373 56.08750987 128.14477539 50.51196289 C129.52092299 45.12905743 130.90256806 39.74759038 132.28800011 34.36706734 C132.81502087 32.31633104 133.34007488 30.26508825 133.86310768 28.21333122 C134.59726923 25.33477523 135.33846828 22.45811632 136.08129883 19.58178711 C136.40174667 18.31510948 136.40174667 18.31510948 136.72866821 17.02284241 C140.34109563 3.13614285 140.34109563 3.13614285 144.625 0.25 C146.80151367 -0.09057617 146.80151367 -0.09057617 149.29296875 -0.04296875 C150.18564453 -0.03330078 151.07832031 -0.02363281 151.99804688 -0.01367188 C153.39120117 0.0240332 153.39120117 0.0240332 154.8125 0.0625 C155.75287109 0.07603516 156.69324219 0.08957031 157.66210938 0.10351562 C159.98365038 0.13886904 162.30403653 0.18821326 164.625 0.25 C167.17978084 4.50796807 166.41686629 7.48538103 165.42773438 12.06414795 C163.68146946 18.99463685 161.46644562 25.78953178 159.3125 32.6015625 C158.77835367 34.30408708 158.24467211 36.00675753 157.71142578 37.70956421 C156.30598948 42.19326885 154.8944382 46.67502473 153.48150635 51.15637207 C152.08178017 55.59922844 150.68750947 60.04379508 149.29296875 64.48828125 C147.65228588 69.71643454 146.010695 74.94429404 144.36450195 80.17071533 C141.7884646 88.35046921 139.22220809 96.53292047 136.6875 104.72558594 C136.22742436 106.20968083 135.76730186 107.6937612 135.30712891 109.17782593 C134.46163058 111.90481556 133.62080791 114.63318411 132.78271484 117.36245728 C129.04244024 129.42647311 129.04244024 129.42647311 126.625 134.25 C122.86345432 136.13077284 118.32676726 135.47802645 114.1875 135.5 C112.73633789 135.5309375 112.73633789 135.5309375 111.25585938 135.5625 C109.86270508 135.57023437 109.86270508 135.57023437 108.44140625 135.578125 C107.59006104 135.5874707 106.73871582 135.59681641 105.86157227 135.60644531 C103.03329458 135.15569917 102.41774411 134.4568685 100.625 132.25 C96.44180475 121.98973809 94.42253758 110.57797109 91.859375 99.82421875 C91.41704802 97.98183163 90.97435358 96.13953269 90.53131104 94.2973175 C89.37692282 89.49298596 88.22746726 84.68748798 87.07910156 79.88171387 C85.90211667 74.9601295 84.72037852 70.03968684 83.5390625 65.11914062 C81.22977134 55.49719343 78.92569949 45.87400488 76.625 36.25 C75.10374193 42.43193271 73.58440426 48.61433373 72.06686401 54.79718018 C71.52311169 57.01237113 70.9791061 59.22749992 70.43484497 61.44256592 C67.47670341 73.4868284 64.54043067 85.53508641 61.70703125 97.609375 C61.48065979 98.57171051 61.25428833 99.53404602 61.02105713 100.52554321 C59.95126027 105.0762 58.88833947 109.62828203 57.83642578 114.18310547 C57.45239272 115.82264838 57.06812851 117.46213718 56.68359375 119.1015625 C56.51841751 119.82865417 56.35324127 120.55574585 56.18305969 121.30487061 C55.10143636 125.88037076 53.58563543 129.97409044 51.625 134.25 C47.68756167 134.30797565 43.75023281 134.34358789 39.8125 134.375 C38.69294922 134.39175781 37.57339844 134.40851563 36.41992188 134.42578125 C35.34677734 134.43222656 34.27363281 134.43867188 33.16796875 134.4453125 C32.17821045 134.45578613 31.18845215 134.46625977 30.16870117 134.47705078 C27.625 134.25 27.625 134.25 24.625 132.25 C24.05020142 130.00675964 24.05020142 130.00675964 23.625 127.25 C23.04672279 125.20735683 22.44305821 123.17182248 21.82177734 121.1418457 C21.44933899 119.92047409 21.07690063 118.69910248 20.69317627 117.4407196 C20.28246799 116.10239516 19.87172054 114.76408274 19.4609375 113.42578125 C19.03173358 112.02125409 18.60276335 110.6166555 18.17401123 109.21199036 C17.25992682 106.21838433 16.34454106 103.2251804 15.42828369 100.23223877 C13.99575556 95.551197 12.56928819 90.86832216 11.14404297 86.18505859 C7.10896531 72.9293267 3.07068749 59.67480145 -1.01931763 46.43589783 C-2.443509 41.81887506 -3.85692311 37.19860258 -5.26776123 32.57748413 C-5.91916117 30.4536645 -6.57572629 28.33142177 -7.23760986 26.21084595 C-8.14796947 23.29280842 -9.04080369 20.3699505 -9.9296875 17.4453125 C-10.32960907 16.18748711 -10.32960907 16.18748711 -10.73760986 14.9042511 C-12.23258379 9.90553284 -12.59683563 6.35335307 -11.375 1.25 C-9.01278593 -1.11221407 -3.17140642 0.01669161 0 0 Z M-9.375 1.25 C-9.375 1.58 -9.375 1.91 -9.375 2.25 C-2.775 2.25 3.825 2.25 10.625 2.25 C10.625 1.92 10.625 1.59 10.625 1.25 C4.025 1.25 -2.575 1.25 -9.375 1.25 Z M144.625 1.25 C144.625 1.58 144.625 1.91 144.625 2.25 C150.895 2.25 157.165 2.25 163.625 2.25 C163.625 1.92 163.625 1.59 163.625 1.25 C157.355 1.25 151.085 1.25 144.625 1.25 Z M39.625 97.25 C39.295 99.23 38.965 101.21 38.625 103.25 C39.285 102.59 39.945 101.93 40.625 101.25 C40.3064823 99.14179203 40.3064823 99.14179203 39.625 97.25 Z M103.625 133.25 C103.625 133.58 103.625 133.91 103.625 134.25 C110.225 134.25 116.825 134.25 123.625 134.25 C123.625 133.92 123.625 133.59 123.625 133.25 C117.025 133.25 110.425 133.25 103.625 133.25 Z " fill="#000000" transform="translate(179.375,163.75)"/>
<path d="M0 0 C1.65687891 0.02014047 3.31378208 0.03837762 4.97070312 0.0546875 C8.960255 0.09798382 12.94859402 0.16657022 16.9375 0.25 C16.9375 0.91 16.9375 1.57 16.9375 2.25 C17.51757812 2.34796875 18.09765625 2.4459375 18.6953125 2.546875 C23.91515436 3.54605265 27.75275485 4.77972354 31.9375 8.25 C32.62018138 9.57520503 33.2882041 10.90812182 33.9375 12.25 C35.2059375 12.9615625 35.2059375 12.9615625 36.5 13.6875 C38.9375 15.25 38.9375 15.25 39.46875 17.578125 C39.6234375 18.45984375 39.778125 19.3415625 39.9375 20.25 C40.55634269 21.69932421 41.20385825 23.13664036 41.875 24.5625 C46.35153694 35.78098901 46.09041094 48.105814 46.17578125 60.0078125 C46.18471909 61.24776474 46.19365692 62.48771698 46.2028656 63.76524353 C46.23229145 68.94107572 46.25227438 74.1165612 46.24291992 79.29248047 C45.77882685 99.42073452 45.77882685 99.42073452 51.9375 118.25 C52.2675 118.58 52.5975 118.91 52.9375 119.25 C53.95216076 124.0696386 53.95216076 124.0696386 52.9375 127.25 C49.08978156 131.47676877 44.69352911 134.78398715 38.98046875 135.75 C36.57602839 135.75 34.31114123 135.62072054 31.9375 135.25 C31.5353125 134.2909375 31.5353125 134.2909375 31.125 133.3125 C30.05082248 130.91868314 30.05082248 130.91868314 26.9375 130.25 C26.834375 129.486875 26.73125 128.72375 26.625 127.9375 C25.89385961 125.07940576 25.16798087 124.09257115 22.9375 122.25 C22.36 122.53875 21.7825 122.8275 21.1875 123.125 C19.81186883 123.81281558 18.41833717 124.46771344 17 125.0625 C14.75226962 126.21910559 14.75226962 126.21910559 12.8125 128.5625 C5.7993749 135.11824738 -1.66966428 137.10634487 -11.0625 137.25 C-12.14192871 137.27054443 -12.14192871 137.27054443 -13.24316406 137.29150391 C-18.85250312 137.38663573 -24.45362598 137.359498 -30.0625 137.25 C-31.10664062 137.23324219 -32.15078125 137.21648437 -33.2265625 137.19921875 C-39.05159824 136.88362084 -43.6875105 135.228238 -48.0625 131.25 C-48.75830267 129.93163705 -49.425015 128.59752926 -50.0625 127.25 C-50.99018241 126.1606358 -51.95032927 125.09826203 -52.9375 124.0625 C-61.04245828 114.84781639 -61.63789933 103.9036155 -61.19433594 92.17382812 C-60.6292275 83.92743092 -56.908424 77.73647118 -52.0625 71.25 C-51.30066406 70.21166016 -51.30066406 70.21166016 -50.5234375 69.15234375 C-46.37530253 63.75089528 -42.22713344 59.73274069 -35.375 58.6875 C-34.6830957 58.62457764 -33.99119141 58.56165527 -33.27832031 58.49682617 C-30.93734278 58.2360584 -28.71851877 57.75838693 -26.421875 57.23828125 C-21.23389621 56.18315564 -16.28224615 55.94394964 -11 56 C-9.6538562 56.00580078 -9.6538562 56.00580078 -8.28051758 56.01171875 C0.21269353 56.1197119 8.54162726 57.01757831 16.9375 58.25 C17.19396743 54.70976126 17.4127688 51.16814398 17.625 47.625 C17.73424805 46.12646484 17.73424805 46.12646484 17.84570312 44.59765625 C18.16063477 39.00298821 18.24813384 35.05319778 14.9375 30.25 C13.18910856 28.95834575 13.18910856 28.95834575 10.9375 28.25 C9.68547434 27.7130321 8.43559509 27.1710416 7.1875 26.625 C6.115 26.17125 5.0425 25.7175 3.9375 25.25 C3.9375 24.59 3.9375 23.93 3.9375 23.25 C-7.4866702 20.0585873 -20.90971058 21.88614251 -32.0625 25.25 C-32.0625 25.91 -32.0625 26.57 -32.0625 27.25 C-34.28832389 28.09334329 -36.51746026 28.92478551 -38.75 29.75 C-39.37583984 29.98847656 -40.00167969 30.22695312 -40.64648438 30.47265625 C-44.24442299 31.7912725 -47.22770253 32.54329235 -51.0625 32.25 C-53.80690773 25.3082628 -53.8841787 16.97346777 -51.1796875 9.9609375 C-49.35491312 7.16635295 -47.12918245 6.44259873 -44.0625 5.25 C-42.11166015 5.0120459 -40.16058391 4.77565388 -38.20773315 4.55480957 C-35.50721624 4.17110144 -32.91239427 3.47252425 -30.28440857 2.75189209 C-20.11294774 0.00293539 -10.47508471 -0.22598127 0 0 Z M-50.0625 30.25 C-46.0625 31.25 -46.0625 31.25 -46.0625 31.25 Z M18.9375 41.25 C18.9375 47.52 18.9375 53.79 18.9375 60.25 C19.2675 60.25 19.5975 60.25 19.9375 60.25 C19.9375 53.98 19.9375 47.71 19.9375 41.25 C19.6075 41.25 19.2775 41.25 18.9375 41.25 Z M-15.4375 75.25 C-16.49710938 75.435625 -17.55671875 75.62125 -18.6484375 75.8125 C-19.44507813 75.956875 -20.24171875 76.10125 -21.0625 76.25 C-21.0625 76.91 -21.0625 77.57 -21.0625 78.25 C-22.3928125 78.5903125 -22.3928125 78.5903125 -23.75 78.9375 C-28.06508237 80.64724962 -30.63713307 83.0846342 -33.18359375 86.953125 C-34.43270664 90.21747335 -34.36456559 93.13990827 -34.375 96.625 C-34.39175781 97.91148437 -34.40851563 99.19796875 -34.42578125 100.5234375 C-33.9665961 105.23378844 -32.68342873 108.68496537 -29.25 112 C-26.62298411 113.50115194 -23.93322326 114.31389459 -21.0625 115.25 C-20.4025 115.91 -19.7425 116.57 -19.0625 117.25 C-11.52172894 118.40665214 -4.25527769 116.32626573 2.9375 114.25 C2.9375 113.59 2.9375 112.93 2.9375 112.25 C5.24452814 110.64789713 7.13515312 109.3753667 9.9375 108.9375 C14.44064564 107.38954368 16.61764244 102.86686815 18.6875 98.875 C20.94531772 92.36942353 20.69761822 85.06595118 20.9375 78.25 C20.2775 78.25 19.6175 78.25 18.9375 78.25 C18.32116699 77.93305176 17.70483398 77.61610352 17.06982422 77.28955078 C14.8699064 76.21704677 13.23964578 75.8724151 10.8203125 75.6171875 C10.04816406 75.53339844 9.27601562 75.44960937 8.48046875 75.36328125 C7.68253906 75.28464844 6.88460937 75.20601563 6.0625 75.125 C5.27230469 75.03863281 4.48210937 74.95226562 3.66796875 74.86328125 C-2.8981814 74.17498265 -8.90370045 74.08843563 -15.4375 75.25 Z M21.9375 118.25 C22.9375 120.25 22.9375 120.25 22.9375 120.25 Z " fill="#000000" transform="translate(109.0625,162.75)"/>
<path d="M0 0 C3.17462624 0.64412706 6.00571448 0.77365584 9.234375 0.65625 C9.234375 1.31625 9.234375 1.97625 9.234375 2.65625 C10.348125 2.90375 11.461875 3.15125 12.609375 3.40625 C16.234375 4.65625 16.234375 4.65625 17.609375 6.59375 C17.91875 7.6146875 17.91875 7.6146875 18.234375 8.65625 C18.729375 10.14125 18.729375 10.14125 19.234375 11.65625 C19.35292056 13.48681393 19.40954733 15.32189306 19.421875 17.15625 C19.43605469 18.1153125 19.45023437 19.074375 19.46484375 20.0625 C19.234375 22.65625 19.234375 22.65625 17.234375 25.65625 C11.73771231 26.57565581 6.35046977 25.81039517 1.234375 23.65625 C1.234375 22.99625 1.234375 22.33625 1.234375 21.65625 C-8.40424668 19.12808694 -17.87999203 19.47355863 -27.765625 19.65625 C-27.765625 20.31625 -27.765625 20.97625 -27.765625 21.65625 C-28.52488281 21.84960938 -29.28414063 22.04296875 -30.06640625 22.2421875 C-31.55720703 22.63277344 -31.55720703 22.63277344 -33.078125 23.03125 C-34.55732422 23.41410156 -34.55732422 23.41410156 -36.06640625 23.8046875 C-38.9462066 24.57538174 -38.9462066 24.57538174 -41.765625 26.65625 C-42.77059352 29.67115557 -42.86897803 31.69806692 -42.828125 34.84375 C-42.81910156 35.74480469 -42.81007813 36.64585937 -42.80078125 37.57421875 C-42.78917969 38.26128906 -42.77757812 38.94835937 -42.765625 39.65625 C-42.105625 39.98625 -41.445625 40.31625 -40.765625 40.65625 C-40.140625 42.71875 -40.140625 42.71875 -39.765625 44.65625 C-38.8375 44.841875 -38.8375 44.841875 -37.890625 45.03125 C-35.765625 45.65625 -35.765625 45.65625 -33.765625 47.65625 C-31.55532967 48.76139766 -29.55486186 49.20141353 -27.140625 49.71875 C-26.32335937 49.89535156 -25.50609375 50.07195312 -24.6640625 50.25390625 C-24.03757812 50.38667969 -23.41109375 50.51945312 -22.765625 50.65625 C-22.765625 51.31625 -22.765625 51.97625 -22.765625 52.65625 C-18.805625 53.31625 -14.845625 53.97625 -10.765625 54.65625 C-10.765625 55.31625 -10.765625 55.97625 -10.765625 56.65625 C-9.75757813 56.60082031 -8.74953125 56.54539063 -7.7109375 56.48828125 C-3.40172065 56.67174296 -0.57884626 57.62564688 3.359375 59.34375 C4.53757812 59.84261719 5.71578125 60.34148437 6.9296875 60.85546875 C15.80510696 65.69183798 22.72678691 75.91760067 25.82421875 85.4765625 C28.01331714 97.1100568 26.04935044 108.15768783 19.41796875 117.8671875 C18.16781789 119.66801701 18.16781789 119.66801701 17.1953125 121.82421875 C15.93816092 124.22098335 14.64672651 124.48453641 12.234375 125.65625 C11.05875 126.8628125 11.05875 126.8628125 9.859375 128.09375 C5.20650784 132.63583461 0.98359332 133.90433656 -5.30078125 134.40625 C-7.88949171 134.66881334 -10.34706715 135.17451177 -12.890625 135.71875 C-27.79905268 138.47266789 -42.94924149 135.79768043 -57.765625 133.65625 C-57.765625 132.99625 -57.765625 132.33625 -57.765625 131.65625 C-58.68794922 131.52669922 -58.68794922 131.52669922 -59.62890625 131.39453125 C-66.31627984 130.23197348 -66.31627984 130.23197348 -68.765625 127.09375 C-69.095625 126.289375 -69.425625 125.485 -69.765625 124.65625 C-70.095625 124.32625 -70.425625 123.99625 -70.765625 123.65625 C-70.8639971 122.32581375 -70.89641092 120.99031656 -70.8984375 119.65625 C-70.89972656 118.851875 -70.90101563 118.0475 -70.90234375 117.21875 C-70.89847656 116.373125 -70.89460938 115.5275 -70.890625 114.65625 C-70.89449219 113.810625 -70.89835937 112.965 -70.90234375 112.09375 C-70.90105469 111.289375 -70.89976562 110.485 -70.8984375 109.65625 C-70.89730957 108.91375 -70.89618164 108.17125 -70.89501953 107.40625 C-70.765625 105.65625 -70.765625 105.65625 -69.765625 104.65625 C-67.76604136 104.61544217 -65.76517246 104.61370644 -63.765625 104.65625 C-63.765625 105.31625 -63.765625 105.97625 -63.765625 106.65625 C-62.8375 106.759375 -61.909375 106.8625 -60.953125 106.96875 C-55.77062668 107.69387322 -50.78543884 109.21294005 -45.765625 110.65625 C-45.765625 111.31625 -45.765625 111.97625 -45.765625 112.65625 C-43.39124251 112.9945844 -41.01627541 113.32704002 -38.640625 113.65625 C-37.97546875 113.75164062 -37.3103125 113.84703125 -36.625 113.9453125 C-32.63933519 114.49236453 -28.78702562 114.75647182 -24.765625 114.65625 C-24.765625 113.99625 -24.765625 113.33625 -24.765625 112.65625 C-23.98058594 112.53507812 -23.19554687 112.41390625 -22.38671875 112.2890625 C-12.62023553 111.19359386 -12.62023553 111.19359386 -3.890625 107.21875 C-2.55914503 105.53296082 -2.55914503 105.53296082 -1.765625 102.65625 C-1.40210938 102.02976562 -1.03859375 101.40328125 -0.6640625 100.7578125 C0.45381697 98.14294661 0.22600584 96.78308015 -0.390625 94.03125 C-0.54789062 93.25523437 -0.70515625 92.47921875 -0.8671875 91.6796875 C-2.02129826 89.08042936 -3.24991968 88.81963942 -5.765625 87.65625 C-6.095625 86.66625 -6.425625 85.67625 -6.765625 84.65625 C-10.065625 83.99625 -13.365625 83.33625 -16.765625 82.65625 C-16.765625 81.99625 -16.765625 81.33625 -16.765625 80.65625 C-17.9825 80.57375 -19.199375 80.49125 -20.453125 80.40625 C-26.80193025 79.72674528 -32.7307233 77.66166556 -38.765625 75.65625 C-38.765625 74.99625 -38.765625 74.33625 -38.765625 73.65625 C-39.961875 73.3675 -41.158125 73.07875 -42.390625 72.78125 C-52.92039419 70.10229812 -52.92039419 70.10229812 -56.765625 65.65625 C-57.21679688 65.19605469 -57.66796875 64.73585938 -58.1328125 64.26171875 C-66.58910773 55.25773601 -70.12145835 45.07973613 -69.97265625 32.97265625 C-69.40837295 23.93347654 -65.47196195 18.4390096 -59.765625 11.65625 C-58.76405845 10.32409302 -57.76384455 8.99091681 -56.765625 7.65625 C-54.20362134 4.76366522 -52.60332062 3.25588994 -48.765625 2.65625 C-45.13736897 1.8219042 -41.68616029 0.61403632 -38.1796875 -0.625 C-25.91225162 -4.27744046 -12.25588332 -2.941412 0 0 Z " fill="#000000" transform="translate(425.765625,164.34375)"/>
<path d="M0 0 C5.81322038 13.76815353 -1.08080826 33.85761206 -6.25 46.8125 C-8.92747773 53.24608808 -12.19576516 58.83896977 -16.30078125 64.484375 C-18.07707851 66.90381932 -18.07707851 66.90381932 -18.9609375 69.55859375 C-20.24493758 72.57551124 -21.87477165 74.13698109 -24.3125 76.3125 C-25.07175781 77.00988281 -25.83101563 77.70726562 -26.61328125 78.42578125 C-29.34725007 80.22903728 -30.79140698 80.33505662 -34 80 C-35.87439517 73.06280552 -33.56011954 68.32975378 -30.875 61.875 C-27.71486504 53.86756025 -24.90384947 45.9343493 -22.875 37.5625 C-22.66343262 36.73024902 -22.45186523 35.89799805 -22.23388672 35.04052734 C-20.93045169 29.36857526 -21.09083456 24.74845745 -22 19 C-24.31 18.67 -26.62 18.34 -29 18 C-29 17.34 -29 16.68 -29 16 C-30.27875 15.835 -31.5575 15.67 -32.875 15.5 C-33.59429687 15.4071875 -34.31359375 15.314375 -35.0546875 15.21875 C-43.62669384 14.58210231 -52.08173603 15.23183289 -60.625 16 C-61.72457031 16.09539062 -62.82414062 16.19078125 -63.95703125 16.2890625 C-66.63837982 16.52222324 -69.31932221 16.7592704 -72 17 C-72 17.66 -72 18.32 -72 19 C-74.97 19 -77.94 19 -81 19 C-82.38720454 14.83838638 -81.61332816 12.39702526 -79.875 8.4375 C-77.25803541 5.03544604 -74.90819894 3.81933399 -71 2 C-68.0625 1.75 -68.0625 1.75 -66 2 C-66 1.34 -66 0.68 -66 0 C-62.29646571 -1.85176715 -59.4132784 -2.05821815 -55.31640625 -1.9375 C-52.73068832 -2.00726642 -50.40768691 -2.47524185 -47.875 -3 C-32.28488808 -5.74307033 -15.06336954 -5.02112318 0 0 Z " fill="#000000" transform="translate(469,330)"/>
<path d="M0 0 C0.33 0 0.66 0 1 0 C1 19.14 1 38.28 1 58 C0.67 58 0.34 58 0 58 C0 38.86 0 19.72 0 0 Z " fill="#000000" transform="translate(156,209)"/>
<path d="M0 0 C17.82 0 35.64 0 54 0 C54 0.33 54 0.66 54 1 C36.18 1 18.36 1 0 1 C0 0.67 0 0.34 0 0 Z " fill="#000000" transform="translate(227,391)"/>
<path d="M0 0 C13.86 0 27.72 0 42 0 C42 0.33 42 0.66 42 1 C28.14 1 14.28 1 0 1 C0 0.67 0 0.34 0 0 Z " fill="#000000" transform="translate(228,427)"/>
<path d="M0 0 C8.91 0 17.82 0 27 0 C27 0.33 27 0.66 27 1 C18.09 1 9.18 1 0 1 C0 0.67 0 0.34 0 0 Z " fill="#000000" transform="translate(90,161)"/>
<path d="M0 0 C6.6 0 13.2 0 20 0 C20 0.33 20 0.66 20 1 C13.4 1 6.8 1 0 1 C0 0.67 0 0.34 0 0 Z " fill="#000000" transform="translate(429,324)"/>
<path d="M0 0 C6.6 0 13.2 0 20 0 C20 0.33 20 0.66 20 1 C13.4 1 6.8 1 0 1 C0 0.67 0 0.34 0 0 Z " fill="#000000" transform="translate(88,217)"/>
<path d="M0 0 C6.27 0 12.54 0 19 0 C19 0.33 19 0.66 19 1 C12.73 1 6.46 1 0 1 C0 0.67 0 0.34 0 0 Z " fill="#000000" transform="translate(79,301)"/>
<path d="M0 0 C6.27 0 12.54 0 19 0 C19 0.33 19 0.66 19 1 C12.73 1 6.46 1 0 1 C0 0.67 0 0.34 0 0 Z " fill="#000000" transform="translate(209,298)"/>
<path d="M0 0 C6.27 0 12.54 0 19 0 C19 0.33 19 0.66 19 1 C12.73 1 6.46 1 0 1 C0 0.67 0 0.34 0 0 Z " fill="#000000" transform="translate(90,185)"/>
<path d="M0 0 C6.27 0 12.54 0 19 0 C19 0.33 19 0.66 19 1 C12.73 1 6.46 1 0 1 C0 0.67 0 0.34 0 0 Z " fill="#000000" transform="translate(398,184)"/>
<path d="M0 0 C6.27 0 12.54 0 19 0 C19 0.33 19 0.66 19 1 C12.73 1 6.46 1 0 1 C0 0.67 0 0.34 0 0 Z " fill="#000000" transform="translate(247,164)"/>
<path d="M0 0 C0.33 0 0.66 0 1 0 C1 5.94 1 11.88 1 18 C0.67 18 0.34 18 0 18 C0 12.06 0 6.12 0 0 Z " fill="#000000" transform="translate(471,334)"/>
<path d="M0 0 C5.94 0 11.88 0 18 0 C18 0.33 18 0.66 18 1 C12.06 1 6.12 1 0 1 C0 0.67 0 0.34 0 0 Z " fill="#000000" transform="translate(396,160)"/>
<path d="M0 0 C0.33 0 0.66 0 1 0 C1 5.28 1 10.56 1 16 C0.67 16 0.34 16 0 16 C0 10.72 0 5.44 0 0 Z " fill="#000000" transform="translate(353,272)"/>
<path d="M0 0 C0.33 0 0.66 0 1 0 C1 5.28 1 10.56 1 16 C0.67 16 0.34 16 0 16 C0 10.72 0 5.44 0 0 Z " fill="#000000" transform="translate(46,253)"/>
<path d="M0 0 C4.95 0 9.9 0 15 0 C15 0.33 15 0.66 15 1 C10.05 1 5.1 1 0 1 C0 0.67 0 0.34 0 0 Z " fill="#000000" transform="translate(392,302)"/>
<path d="M0 0 C4.62 0 9.24 0 14 0 C14 0.33 14 0.66 14 1 C9.38 1 4.76 1 0 1 C0 0.67 0 0.34 0 0 Z " fill="#000000" transform="translate(407,346)"/>
<path d="M0 0 C0.33 0 0.66 0 1 0 C1 4.62 1 9.24 1 14 C0.67 14 0.34 14 0 14 C0 9.38 0 4.76 0 0 Z " fill="#000000" transform="translate(76,253)"/>
<path d="M0 0 C0.33 0 0.66 0 1 0 C1 4.62 1 9.24 1 14 C0.67 14 0.34 14 0 14 C0 9.38 0 4.76 0 0 Z " fill="#000000" transform="translate(453,252)"/>
<path d="M0 0 C0.33 0 0.66 0 1 0 C1 4.29 1 8.58 1 13 C0.67 13 0.34 13 0 13 C0 8.71 0 4.42 0 0 Z " fill="#000000" transform="translate(354,194)"/>
<path d="M0 0 C3.96 0 7.92 0 12 0 C12 0.33 12 0.66 12 1 C8.04 1 4.08 1 0 1 C0 0.67 0 0.34 0 0 Z " fill="#000000" transform="translate(281,390)"/>
<path d="M0 0 C3.96 0 7.92 0 12 0 C12 0.33 12 0.66 12 1 C8.04 1 4.08 1 0 1 C0 0.67 0 0.34 0 0 Z " fill="#000000" transform="translate(214,390)"/>
<path d="M0 0 C3.96 0 7.92 0 12 0 C12 0.33 12 0.66 12 1 C8.04 1 4.08 1 0 1 C0 0.67 0 0.34 0 0 Z " fill="#000000" transform="translate(106,239)"/>
<path d="M0 0 C3.63 0 7.26 0 11 0 C11 0.33 11 0.66 11 1 C7.37 1 3.74 1 0 1 C0 0.67 0 0.34 0 0 Z " fill="#000000" transform="translate(271,426)"/>
<path d="M0 0 C3.63 0 7.26 0 11 0 C11 0.33 11 0.66 11 1 C7.37 1 3.74 1 0 1 C0 0.67 0 0.34 0 0 Z " fill="#000000" transform="translate(216,426)"/>
<path d="M0 0 C3.63 0 7.26 0 11 0 C11 0.33 11 0.66 11 1 C7.37 1 3.74 1 0 1 C0 0.67 0 0.34 0 0 Z " fill="#000000" transform="translate(385,277)"/>
<path d="M0 0 C0.33 0 0.66 0 1 0 C1 3.63 1 7.26 1 11 C0.67 11 0.34 11 0 11 C0 7.37 0 3.74 0 0 Z " fill="#000000" transform="translate(446,176)"/>
<path d="M0 0 C3.3 0 6.6 0 10 0 C10 0.33 10 0.66 10 1 C6.7 1 3.4 1 0 1 C0 0.67 0 0.34 0 0 Z " fill="#000000" transform="translate(90,278)"/>
<path d="M0 0 C0.33 0 0.66 0 1 0 C1 3.3 1 6.6 1 10 C0.67 10 0.34 10 0 10 C0 6.7 0 3.4 0 0 Z " fill="#000000" transform="translate(383,194)"/>
<path d="M0 0 C2.97 0 5.94 0 9 0 C9 0.33 9 0.66 9 1 C6.03 1 3.06 1 0 1 C0 0.67 0 0.34 0 0 Z " fill="#000000" transform="translate(293,389)"/>
<path d="M0 0 C2.97 0 5.94 0 9 0 C9 0.33 9 0.66 9 1 C6.03 1 3.06 1 0 1 C0 0.67 0 0.34 0 0 Z " fill="#000000" transform="translate(205,389)"/>
<path d="M0 0 C2.97 0 5.94 0 9 0 C9 0.33 9 0.66 9 1 C6.03 1 3.06 1 0 1 C0 0.67 0 0.34 0 0 Z " fill="#000000" transform="translate(398,347)"/>
<path d="M0 0 C2.97 0 5.94 0 9 0 C9 0.33 9 0.66 9 1 C6.03 1 3.06 1 0 1 C0 0.67 0 0.34 0 0 Z " fill="#000000" transform="translate(431,346)"/>
<path d="M0 0 C0.99 0.495 0.99 0.495 2 1 C2 2.65 2 4.3 2 6 C1.34 5.34 0.68 4.68 0 4 C0 2.68 0 1.36 0 0 Z " fill="#000000" transform="translate(255,203)"/>
<path d="M0 0 C0.33 0 0.66 0 1 0 C1 2.97 1 5.94 1 9 C0.67 9 0.34 9 0 9 C0 6.03 0 3.06 0 0 Z " fill="#000000" transform="translate(155,198)"/>
<path d="M0 0 C2.64 0 5.28 0 8 0 C8 0.33 8 0.66 8 1 C5.36 1 2.72 1 0 1 C0 0.67 0 0.34 0 0 Z " fill="#000000" transform="translate(282,425)"/>
<path d="M0 0 C2.64 0 5.28 0 8 0 C8 0.33 8 0.66 8 1 C5.36 1 2.72 1 0 1 C0 0.67 0 0.34 0 0 Z " fill="#000000" transform="translate(207,425)"/>
<path d="M0 0 C2.64 0 5.28 0 8 0 C8 0.33 8 0.66 8 1 C5.36 1 2.72 1 0 1 C0 0.67 0 0.34 0 0 Z " fill="#000000" transform="translate(384,301)"/>
<path d="M0 0 C0.66 0 1.32 0 2 0 C2 1.32 2 2.64 2 4 C1.34 4 0.68 4 0 4 C0 2.68 0 1.36 0 0 Z " fill="#000000" transform="translate(293,259)"/>
<path d="M0 0 C0.33 0 0.66 0 1 0 C1 2.64 1 5.28 1 8 C0.67 8 0.34 8 0 8 C0 5.36 0 2.72 0 0 Z " fill="#000000" transform="translate(127,249)"/>
<path d="M0 0 C2.64 0 5.28 0 8 0 C8 0.33 8 0.66 8 1 C5.36 1 2.72 1 0 1 C0 0.67 0 0.34 0 0 Z " fill="#000000" transform="translate(92,239)"/>
<path d="M0 0 C0.33 0 0.66 0 1 0 C1 2.64 1 5.28 1 8 C0.67 8 0.34 8 0 8 C0 5.36 0 2.72 0 0 Z " fill="#000000" transform="translate(54,180)"/>
<path d="M0 0 C2.31 0 4.62 0 7 0 C7 0.33 7 0.66 7 1 C4.69 1 2.38 1 0 1 C0 0.67 0 0.34 0 0 Z " fill="#000000" transform="translate(290,424)"/>
<path d="M0 0 C2.31 0 4.62 0 7 0 C7 0.33 7 0.66 7 1 C4.69 1 2.38 1 0 1 C0 0.67 0 0.34 0 0 Z " fill="#000000" transform="translate(200,424)"/>
<path d="M0 0 C2.31 0 4.62 0 7 0 C7 0.33 7 0.66 7 1 C4.69 1 2.38 1 0 1 C0 0.67 0 0.34 0 0 Z " fill="#000000" transform="translate(297,423)"/>
<path d="M0 0 C2.31 0 4.62 0 7 0 C7 0.33 7 0.66 7 1 C4.69 1 2.38 1 0 1 C0 0.67 0 0.34 0 0 Z " fill="#000000" transform="translate(193,423)"/>
<path d="M0 0 C2.31 0 4.62 0 7 0 C7 0.33 7 0.66 7 1 C4.69 1 2.38 1 0 1 C0 0.67 0 0.34 0 0 Z " fill="#000000" transform="translate(303,388)"/>
<path d="M0 0 C2.31 0 4.62 0 7 0 C7 0.33 7 0.66 7 1 C4.69 1 2.38 1 0 1 C0 0.67 0 0.34 0 0 Z " fill="#000000" transform="translate(197,388)"/>
<path d="M0 0 C2.31 0 4.62 0 7 0 C7 0.33 7 0.66 7 1 C4.69 1 2.38 1 0 1 C0 0.67 0 0.34 0 0 Z " fill="#000000" transform="translate(189,387)"/>
<path d="M0 0 C0.33 0 0.66 0 1 0 C1 2.31 1 4.62 1 7 C0.67 7 0.34 7 0 7 C0 4.69 0 2.38 0 0 Z " fill="#000000" transform="translate(446,357)"/>
<path d="M0 0 C2.31 0 4.62 0 7 0 C7 0.33 7 0.66 7 1 C4.69 1 2.38 1 0 1 C0 0.67 0 0.34 0 0 Z " fill="#000000" transform="translate(423,345)"/>
<path d="M0 0 C2.31 0 4.62 0 7 0 C7 0.33 7 0.66 7 1 C4.69 1 2.38 1 0 1 C0 0.67 0 0.34 0 0 Z " fill="#000000" transform="translate(450,325)"/>
<path d="M0 0 C2.31 0 4.62 0 7 0 C7 0.33 7 0.66 7 1 C4.69 1 2.38 1 0 1 C0 0.67 0 0.34 0 0 Z " fill="#000000" transform="translate(421,325)"/>
<path d="M0 0 C2.31 0 4.62 0 7 0 C7 0.33 7 0.66 7 1 C4.69 1 2.38 1 0 1 C0 0.67 0 0.34 0 0 Z " fill="#000000" transform="translate(407,301)"/>
<path d="M0 0 C2.31 0 4.62 0 7 0 C7 0.33 7 0.66 7 1 C4.69 1 2.38 1 0 1 C0 0.67 0 0.34 0 0 Z " fill="#000000" transform="translate(109,218)"/>
<path d="M0 0 C1.98 0 3.96 0 6 0 C6 0.33 6 0.66 6 1 C4.02 1 2.04 1 0 1 C0 0.67 0 0.34 0 0 Z " fill="#000000" transform="translate(311,387)"/>
<path d="M0 0 C1.98 0 3.96 0 6 0 C6 0.33 6 0.66 6 1 C4.02 1 2.04 1 0 1 C0 0.67 0 0.34 0 0 Z " fill="#000000" transform="translate(317,386)"/>
<path d="M0 0 C1.98 0 3.96 0 6 0 C6 0.33 6 0.66 6 1 C4.02 1 2.04 1 0 1 C0 0.67 0 0.34 0 0 Z " fill="#000000" transform="translate(183,386)"/>
<path d="M0 0 C1.98 0 3.96 0 6 0 C6 0.33 6 0.66 6 1 C4.02 1 2.04 1 0 1 C0 0.67 0 0.34 0 0 Z " fill="#000000" transform="translate(177,385)"/>
<path d="M0 0 C0.33 0 0.66 0 1 0 C1 1.98 1 3.96 1 6 C0.67 6 0.34 6 0 6 C0 4.02 0 2.04 0 0 Z " fill="#000000" transform="translate(28,336)"/>
<path d="M0 0 C1.98 0 3.96 0 6 0 C6 0.33 6 0.66 6 1 C4.02 1 2.04 1 0 1 C0 0.67 0 0.34 0 0 Z " fill="#000000" transform="translate(118,240)"/>
<path d="M0 0 C1.98 0 3.96 0 6 0 C6 0.33 6 0.66 6 1 C4.02 1 2.04 1 0 1 C0 0.67 0 0.34 0 0 Z " fill="#000000" transform="translate(437,191)"/>
<path d="M0 0 C1.98 0 3.96 0 6 0 C6 0.33 6 0.66 6 1 C4.02 1 2.04 1 0 1 C0 0.67 0 0.34 0 0 Z " fill="#000000" transform="translate(84,186)"/>
<path d="M0 0 C1.98 0 3.96 0 6 0 C6 0.33 6 0.66 6 1 C4.02 1 2.04 1 0 1 C0 0.67 0 0.34 0 0 Z " fill="#000000" transform="translate(417,185)"/>
<path d="M0 0 C1.98 0 3.96 0 6 0 C6 0.33 6 0.66 6 1 C4.02 1 2.04 1 0 1 C0 0.67 0 0.34 0 0 Z " fill="#000000" transform="translate(84,162)"/>
<path d="M0 0 C1.98 0 3.96 0 6 0 C6 0.33 6 0.66 6 1 C4.02 1 2.04 1 0 1 C0 0.67 0 0.34 0 0 Z " fill="#000000" transform="translate(414,161)"/>
<path d="M0 0 C1.98 0 3.96 0 6 0 C6 0.33 6 0.66 6 1 C4.02 1 2.04 1 0 1 C0 0.67 0 0.34 0 0 Z " fill="#000000" transform="translate(390,161)"/>
<path d="M0 0 C1.65 0 3.3 0 5 0 C5 0.33 5 0.66 5 1 C3.35 1 1.7 1 0 1 C0 0.67 0 0.34 0 0 Z " fill="#000000" transform="translate(304,422)"/>
<path d="M0 0 C1.65 0 3.3 0 5 0 C5 0.33 5 0.66 5 1 C3.35 1 1.7 1 0 1 C0 0.67 0 0.34 0 0 Z " fill="#000000" transform="translate(188,422)"/>
<path d="M0 0 C1.65 0 3.3 0 5 0 C5 0.33 5 0.66 5 1 C3.35 1 1.7 1 0 1 C0 0.67 0 0.34 0 0 Z " fill="#000000" transform="translate(309,421)"/>
<path d="M0 0 C1.65 0 3.3 0 5 0 C5 0.33 5 0.66 5 1 C3.35 1 1.7 1 0 1 C0 0.67 0 0.34 0 0 Z " fill="#000000" transform="translate(183,421)"/>
<path d="M0 0 C1.65 0 3.3 0 5 0 C5 0.33 5 0.66 5 1 C3.35 1 1.7 1 0 1 C0 0.67 0 0.34 0 0 Z " fill="#000000" transform="translate(314,420)"/>
<path d="M0 0 C1.65 0 3.3 0 5 0 C5 0.33 5 0.66 5 1 C3.35 1 1.7 1 0 1 C0 0.67 0 0.34 0 0 Z " fill="#000000" transform="translate(178,420)"/>
<path d="M0 0 C1.65 0 3.3 0 5 0 C5 0.33 5 0.66 5 1 C3.35 1 1.7 1 0 1 C0 0.67 0 0.34 0 0 Z " fill="#000000" transform="translate(324,385)"/>
<path d="M0 0 C1.65 0 3.3 0 5 0 C5 0.33 5 0.66 5 1 C3.35 1 1.7 1 0 1 C0 0.67 0 0.34 0 0 Z " fill="#000000" transform="translate(172,384)"/>
<path d="M0 0 C1.65 0 3.3 0 5 0 C5 0.33 5 0.66 5 1 C3.35 1 1.7 1 0 1 C0 0.67 0 0.34 0 0 Z " fill="#000000" transform="translate(167,383)"/>
<path d="M0 0 C1.65 0 3.3 0 5 0 C5 0.33 5 0.66 5 1 C3.35 1 1.7 1 0 1 C0 0.67 0 0.34 0 0 Z " fill="#000000" transform="translate(162,382)"/>
<path d="M0 0 C1.65 0 3.3 0 5 0 C5 0.33 5 0.66 5 1 C3.35 1 1.7 1 0 1 C0 0.67 0 0.34 0 0 Z " fill="#000000" transform="translate(344,381)"/>
<path d="M0 0 C0.33 0 0.66 0 1 0 C1 1.65 1 3.3 1 5 C0.67 5 0.34 5 0 5 C0 3.35 0 1.7 0 0 Z " fill="#000000" transform="translate(470,352)"/>
<path d="M0 0 C1.65 0 3.3 0 5 0 C5 0.33 5 0.66 5 1 C3.35 1 1.7 1 0 1 C0 0.67 0 0.34 0 0 Z " fill="#000000" transform="translate(416,326)"/>
<path d="M0 0 C1.65 0 3.3 0 5 0 C5 0.33 5 0.66 5 1 C3.35 1 1.7 1 0 1 C0 0.67 0 0.34 0 0 Z " fill="#000000" transform="translate(379,300)"/>
<path d="M0 0 C1.65 0 3.3 0 5 0 C5 0.33 5 0.66 5 1 C3.35 1 1.7 1 0 1 C0 0.67 0 0.34 0 0 Z " fill="#000000" transform="translate(98,300)"/>
<path d="M0 0 C0.33 0 0.66 0 1 0 C1 1.65 1 3.3 1 5 C0.67 5 0.34 5 0 5 C0 3.35 0 1.7 0 0 Z " fill="#000000" transform="translate(163,282)"/>
<path d="M0 0 C0.33 0 0.66 0 1 0 C1 1.65 1 3.3 1 5 C0.67 5 0.34 5 0 5 C0 3.35 0 1.7 0 0 Z " fill="#000000" transform="translate(237,278)"/>
<path d="M0 0 C1.65 0 3.3 0 5 0 C5 0.33 5 0.66 5 1 C3.35 1 1.7 1 0 1 C0 0.67 0 0.34 0 0 Z " fill="#000000" transform="translate(100,277)"/>
<path d="M0 0 C1.65 0 3.3 0 5 0 C5 0.33 5 0.66 5 1 C3.35 1 1.7 1 0 1 C0 0.67 0 0.34 0 0 Z " fill="#000000" transform="translate(380,276)"/>
<path d="M0 0 C0.33 0 0.66 0 1 0 C1 1.65 1 3.3 1 5 C0.67 5 0.34 5 0 5 C0 3.35 0 1.7 0 0 Z " fill="#000000" transform="translate(47,248)"/>
<path d="M0 0 C0.33 0 0.66 0 1 0 C1 1.65 1 3.3 1 5 C0.67 5 0.34 5 0 5 C0 3.35 0 1.7 0 0 Z " fill="#000000" transform="translate(290,246)"/>
<path d="M0 0 C0.33 0 0.66 0 1 0 C1 1.65 1 3.3 1 5 C0.67 5 0.34 5 0 5 C0 3.35 0 1.7 0 0 Z " fill="#000000" transform="translate(222,244)"/>
<path d="M0 0 C0.33 0 0.66 0 1 0 C1 1.65 1 3.3 1 5 C0.67 5 0.34 5 0 5 C0 3.35 0 1.7 0 0 Z " fill="#000000" transform="translate(226,227)"/>
<path d="M0 0 C1.65 0 3.3 0 5 0 C5 0.33 5 0.66 5 1 C3.35 1 1.7 1 0 1 C0 0.67 0 0.34 0 0 Z " fill="#000000" transform="translate(116,219)"/>
<path d="M0 0 C1.65 0 3.3 0 5 0 C5 0.33 5 0.66 5 1 C3.35 1 1.7 1 0 1 C0 0.67 0 0.34 0 0 Z " fill="#000000" transform="translate(82,218)"/>
<path d="M0 0 C0.33 0 0.66 0 1 0 C1 1.65 1 3.3 1 5 C0.67 5 0.34 5 0 5 C0 3.35 0 1.7 0 0 Z " fill="#000000" transform="translate(281,208)"/>
<path d="M0 0 C0.33 0 0.66 0 1 0 C1 1.65 1 3.3 1 5 C0.67 5 0.34 5 0 5 C0 3.35 0 1.7 0 0 Z " fill="#000000" transform="translate(154,193)"/>
<path d="M0 0 C0.33 0 0.66 0 1 0 C1 1.65 1 3.3 1 5 C0.67 5 0.34 5 0 5 C0 3.35 0 1.7 0 0 Z " fill="#000000" transform="translate(277,191)"/>
<path d="M0 0 C1.65 0 3.3 0 5 0 C5 0.33 5 0.66 5 1 C3.35 1 1.7 1 0 1 C0 0.67 0 0.34 0 0 Z " fill="#000000" transform="translate(117,162)"/>
<path d="M0 0 C4 1 4 1 4 1 Z " fill="#000000" transform="translate(319,419)"/>
<path d="M0 0 C4 1 4 1 4 1 Z " fill="#000000" transform="translate(174,419)"/>
<path d="M0 0 C4 1 4 1 4 1 Z " fill="#000000" transform="translate(170,418)"/>
<path d="M0 0 C4 1 4 1 4 1 Z " fill="#000000" transform="translate(328,417)"/>
<path d="M0 0 C4 1 4 1 4 1 Z " fill="#000000" transform="translate(158,415)"/>
<path d="M0 0 C1 4 1 4 1 4 Z " fill="#000000" transform="translate(432,403)"/>
<path d="M0 0 C4 1 4 1 4 1 Z " fill="#000000" transform="translate(340,382)"/>
<path d="M0 0 C4 1 4 1 4 1 Z " fill="#000000" transform="translate(349,380)"/>
<path d="M0 0 C4 1 4 1 4 1 Z " fill="#000000" transform="translate(153,380)"/>
<path d="M0 0 C4 1 4 1 4 1 Z " fill="#000000" transform="translate(353,379)"/>
<path d="M0 0 C4 1 4 1 4 1 Z " fill="#000000" transform="translate(149,379)"/>
<path d="M0 0 C4 1 4 1 4 1 Z " fill="#000000" transform="translate(357,378)"/>
<path d="M0 0 C4 1 4 1 4 1 Z " fill="#000000" transform="translate(145,378)"/>
<path d="M0 0 C4 1 4 1 4 1 Z " fill="#000000" transform="translate(361,377)"/>
<path d="M0 0 C4 1 4 1 4 1 Z " fill="#000000" transform="translate(141,377)"/>
<path d="M0 0 C1 4 1 4 1 4 Z " fill="#000000" transform="translate(444,368)"/>
<path d="M0 0 C1 4 1 4 1 4 Z " fill="#000000" transform="translate(445,364)"/>
<path d="M0 0 C1 4 1 4 1 4 Z " fill="#000000" transform="translate(468,361)"/>
<path d="M0 0 C1 4 1 4 1 4 Z " fill="#000000" transform="translate(469,357)"/>
<path d="M0 0 C1 4 1 4 1 4 Z " fill="#000000" transform="translate(447,353)"/>
<path d="M0 0 C1 4 1 4 1 4 Z " fill="#000000" transform="translate(446,349)"/>
<path d="M0 0 C1 4 1 4 1 4 Z " fill="#000000" transform="translate(385,342)"/>
<path d="M0 0 C4 1 4 1 4 1 Z " fill="#000000" transform="translate(412,327)"/>
<path d="M0 0 C4 1 4 1 4 1 Z " fill="#000000" transform="translate(457,326)"/>
<path d="M0 0 C4 1 4 1 4 1 Z " fill="#000000" transform="translate(414,300)"/>
<path d="M0 0 C4 1 4 1 4 1 Z " fill="#000000" transform="translate(75,300)"/>
<path d="M0 0 C4 1 4 1 4 1 Z " fill="#000000" transform="translate(375,299)"/>
<path d="M0 0 C1 4 1 4 1 4 Z " fill="#000000" transform="translate(235,287)"/>
<path d="M0 0 C1 4 1 4 1 4 Z " fill="#000000" transform="translate(275,284)"/>
<path d="M0 0 C1 4 1 4 1 4 Z " fill="#000000" transform="translate(200,284)"/>
<path d="M0 0 C1 4 1 4 1 4 Z " fill="#000000" transform="translate(236,283)"/>
<path d="M0 0 C1 4 1 4 1 4 Z " fill="#000000" transform="translate(274,279)"/>
<path d="M0 0 C1 4 1 4 1 4 Z " fill="#000000" transform="translate(273,275)"/>
<path d="M0 0 C4 1 4 1 4 1 Z " fill="#000000" transform="translate(105,276)"/>
<path d="M0 0 C1 4 1 4 1 4 Z " fill="#000000" transform="translate(238,274)"/>
<path d="M0 0 C1 4 1 4 1 4 Z " fill="#000000" transform="translate(272,271)"/>
<path d="M0 0 C1 4 1 4 1 4 Z " fill="#000000" transform="translate(239,270)"/>
<path d="M0 0 C1 4 1 4 1 4 Z " fill="#000000" transform="translate(47,270)"/>
<path d="M0 0 C1 4 1 4 1 4 Z " fill="#000000" transform="translate(452,267)"/>
<path d="M0 0 C1 4 1 4 1 4 Z " fill="#000000" transform="translate(271,267)"/>
<path d="M0 0 C1 4 1 4 1 4 Z " fill="#000000" transform="translate(157,267)"/>
<path d="M0 0 C1 4 1 4 1 4 Z " fill="#000000" transform="translate(240,266)"/>
<path d="M0 0 C1 4 1 4 1 4 Z " fill="#000000" transform="translate(424,263)"/>
<path d="M0 0 C1 4 1 4 1 4 Z " fill="#000000" transform="translate(270,263)"/>
<path d="M0 0 C1 4 1 4 1 4 Z " fill="#000000" transform="translate(241,262)"/>
<path d="M0 0 C1 4 1 4 1 4 Z " fill="#000000" transform="translate(193,261)"/>
<path d="M0 0 C1 4 1 4 1 4 Z " fill="#000000" transform="translate(269,259)"/>
<path d="M0 0 C1 4 1 4 1 4 Z " fill="#000000" transform="translate(242,258)"/>
<path d="M0 0 C1 4 1 4 1 4 Z " fill="#000000" transform="translate(126,257)"/>
<path d="M0 0 C1 4 1 4 1 4 Z " fill="#000000" transform="translate(424,256)"/>
<path d="M0 0 C1 4 1 4 1 4 Z " fill="#000000" transform="translate(295,255)"/>
<path d="M0 0 C1 4 1 4 1 4 Z " fill="#000000" transform="translate(292,255)"/>
<path d="M0 0 C1 4 1 4 1 4 Z " fill="#000000" transform="translate(268,254)"/>
<path d="M0 0 C1 4 1 4 1 4 Z " fill="#000000" transform="translate(243,253)"/>
<path d="M0 0 C1 4 1 4 1 4 Z " fill="#000000" transform="translate(220,253)"/>
<path d="M0 0 C1 4 1 4 1 4 Z " fill="#000000" transform="translate(296,251)"/>
<path d="M0 0 C1 4 1 4 1 4 Z " fill="#000000" transform="translate(291,251)"/>
<path d="M0 0 C1 4 1 4 1 4 Z " fill="#000000" transform="translate(267,250)"/>
<path d="M0 0 C1 4 1 4 1 4 Z " fill="#000000" transform="translate(244,249)"/>
<path d="M0 0 C1 4 1 4 1 4 Z " fill="#000000" transform="translate(221,249)"/>
<path d="M0 0 C1 4 1 4 1 4 Z " fill="#000000" transform="translate(452,248)"/>
<path d="M0 0 C1 4 1 4 1 4 Z " fill="#000000" transform="translate(297,247)"/>
<path d="M0 0 C1 4 1 4 1 4 Z " fill="#000000" transform="translate(215,247)"/>
<path d="M0 0 C1 4 1 4 1 4 Z " fill="#000000" transform="translate(266,246)"/>
<path d="M0 0 C1 4 1 4 1 4 Z " fill="#000000" transform="translate(245,245)"/>
<path d="M0 0 C1 4 1 4 1 4 Z " fill="#000000" transform="translate(214,243)"/>
<path d="M0 0 C1 4 1 4 1 4 Z " fill="#000000" transform="translate(289,242)"/>
<path d="M0 0 C1 4 1 4 1 4 Z " fill="#000000" transform="translate(265,242)"/>
<path d="M0 0 C1 4 1 4 1 4 Z " fill="#000000" transform="translate(246,241)"/>
<path d="M0 0 C1 4 1 4 1 4 Z " fill="#000000" transform="translate(223,240)"/>
<path d="M0 0 C1 4 1 4 1 4 Z " fill="#000000" transform="translate(213,239)"/>
<path d="M0 0 C1 4 1 4 1 4 Z " fill="#000000" transform="translate(288,238)"/>
<path d="M0 0 C1 4 1 4 1 4 Z " fill="#000000" transform="translate(264,238)"/>
<path d="M0 0 C1 4 1 4 1 4 Z " fill="#000000" transform="translate(186,238)"/>
<path d="M0 0 C1 4 1 4 1 4 Z " fill="#000000" transform="translate(247,237)"/>
<path d="M0 0 C1 4 1 4 1 4 Z " fill="#000000" transform="translate(300,236)"/>
<path d="M0 0 C1 4 1 4 1 4 Z " fill="#000000" transform="translate(224,236)"/>
<path d="M0 0 C1 4 1 4 1 4 Z " fill="#000000" transform="translate(212,235)"/>
<path d="M0 0 C1 4 1 4 1 4 Z " fill="#000000" transform="translate(287,234)"/>
<path d="M0 0 C1 4 1 4 1 4 Z " fill="#000000" transform="translate(263,234)"/>
<path d="M0 0 C1 4 1 4 1 4 Z " fill="#000000" transform="translate(248,233)"/>
<path d="M0 0 C1 4 1 4 1 4 Z " fill="#000000" transform="translate(301,232)"/>
<path d="M0 0 C1 4 1 4 1 4 Z " fill="#000000" transform="translate(225,232)"/>
<path d="M0 0 C1 4 1 4 1 4 Z " fill="#000000" transform="translate(211,231)"/>
<path d="M0 0 C1 4 1 4 1 4 Z " fill="#000000" transform="translate(286,230)"/>
<path d="M0 0 C1 4 1 4 1 4 Z " fill="#000000" transform="translate(262,229)"/>
<path d="M0 0 C1 4 1 4 1 4 Z " fill="#000000" transform="translate(302,228)"/>
<path d="M0 0 C1 4 1 4 1 4 Z " fill="#000000" transform="translate(249,228)"/>
<path d="M0 0 C1 4 1 4 1 4 Z " fill="#000000" transform="translate(210,227)"/>
<path d="M0 0 C1 4 1 4 1 4 Z " fill="#000000" transform="translate(285,225)"/>
<path d="M0 0 C1 4 1 4 1 4 Z " fill="#000000" transform="translate(261,225)"/>
<path d="M0 0 C1 4 1 4 1 4 Z " fill="#000000" transform="translate(303,224)"/>
<path d="M0 0 C1 4 1 4 1 4 Z " fill="#000000" transform="translate(250,224)"/>
<path d="M0 0 C1 4 1 4 1 4 Z " fill="#000000" transform="translate(227,223)"/>
<path d="M0 0 C1 4 1 4 1 4 Z " fill="#000000" transform="translate(209,223)"/>
<path d="M0 0 C1 4 1 4 1 4 Z " fill="#000000" transform="translate(284,221)"/>
<path d="M0 0 C1 4 1 4 1 4 Z " fill="#000000" transform="translate(260,221)"/>
<path d="M0 0 C1 4 1 4 1 4 Z " fill="#000000" transform="translate(304,220)"/>
<path d="M0 0 C1 4 1 4 1 4 Z " fill="#000000" transform="translate(251,220)"/>
<path d="M0 0 C1 4 1 4 1 4 Z " fill="#000000" transform="translate(228,219)"/>
<path d="M0 0 C1 4 1 4 1 4 Z " fill="#000000" transform="translate(208,219)"/>
<path d="M0 0 C4 1 4 1 4 1 Z " fill="#000000" transform="translate(122,220)"/>
<path d="M0 0 C4 1 4 1 4 1 Z " fill="#000000" transform="translate(78,219)"/>
<path d="M0 0 C1 4 1 4 1 4 Z " fill="#000000" transform="translate(283,217)"/>
<path d="M0 0 C1 4 1 4 1 4 Z " fill="#000000" transform="translate(259,217)"/>
<path d="M0 0 C1 4 1 4 1 4 Z " fill="#000000" transform="translate(305,216)"/>
<path d="M0 0 C1 4 1 4 1 4 Z " fill="#000000" transform="translate(252,216)"/>
<path d="M0 0 C1 4 1 4 1 4 Z " fill="#000000" transform="translate(229,215)"/>
<path d="M0 0 C1 4 1 4 1 4 Z " fill="#000000" transform="translate(207,215)"/>
<path d="M0 0 C1 4 1 4 1 4 Z " fill="#000000" transform="translate(179,215)"/>
<path d="M0 0 C1 4 1 4 1 4 Z " fill="#000000" transform="translate(333,214)"/>
<path d="M0 0 C1 4 1 4 1 4 Z " fill="#000000" transform="translate(282,213)"/>
<path d="M0 0 C1 4 1 4 1 4 Z " fill="#000000" transform="translate(258,213)"/>
<path d="M0 0 C1 4 1 4 1 4 Z " fill="#000000" transform="translate(253,212)"/>
<path d="M0 0 C1 4 1 4 1 4 Z " fill="#000000" transform="translate(230,211)"/>
<path d="M0 0 C1 4 1 4 1 4 Z " fill="#000000" transform="translate(206,211)"/>
<path d="M0 0 C1 4 1 4 1 4 Z " fill="#000000" transform="translate(257,209)"/>
<path d="M0 0 C1 4 1 4 1 4 Z " fill="#000000" transform="translate(254,208)"/>
<path d="M0 0 C1 4 1 4 1 4 Z " fill="#000000" transform="translate(355,207)"/>
<path d="M0 0 C1 4 1 4 1 4 Z " fill="#000000" transform="translate(205,207)"/>
<path d="M0 0 C1 4 1 4 1 4 Z " fill="#000000" transform="translate(231,206)"/>
<path d="M0 0 C1 4 1 4 1 4 Z " fill="#000000" transform="translate(308,205)"/>
<path d="M0 0 C1 4 1 4 1 4 Z " fill="#000000" transform="translate(280,204)"/>
<path d="M0 0 C1 4 1 4 1 4 Z " fill="#000000" transform="translate(204,203)"/>
<path d="M0 0 C1 4 1 4 1 4 Z " fill="#000000" transform="translate(232,202)"/>
<path d="M0 0 C1 4 1 4 1 4 Z " fill="#000000" transform="translate(309,201)"/>
<path d="M0 0 C1 4 1 4 1 4 Z " fill="#000000" transform="translate(279,200)"/>
<path d="M0 0 C1 4 1 4 1 4 Z " fill="#000000" transform="translate(126,200)"/>
<path d="M0 0 C1 4 1 4 1 4 Z " fill="#000000" transform="translate(338,198)"/>
<path d="M0 0 C1 4 1 4 1 4 Z " fill="#000000" transform="translate(233,198)"/>
<path d="M0 0 C1 4 1 4 1 4 Z " fill="#000000" transform="translate(310,197)"/>
<path d="M0 0 C1 4 1 4 1 4 Z " fill="#000000" transform="translate(278,196)"/>
<path d="M0 0 C1 4 1 4 1 4 Z " fill="#000000" transform="translate(234,194)"/>
<path d="M0 0 C1 4 1 4 1 4 Z " fill="#000000" transform="translate(311,193)"/>
<path d="M0 0 C1 4 1 4 1 4 Z " fill="#000000" transform="translate(172,192)"/>
<path d="M0 0 C1 4 1 4 1 4 Z " fill="#000000" transform="translate(355,190)"/>
<path d="M0 0 C1 4 1 4 1 4 Z " fill="#000000" transform="translate(312,189)"/>
<path d="M0 0 C1 4 1 4 1 4 Z " fill="#000000" transform="translate(235,189)"/>
<path d="M0 0 C1 4 1 4 1 4 Z " fill="#000000" transform="translate(200,188)"/>
<path d="M0 0 C1 4 1 4 1 4 Z " fill="#000000" transform="translate(276,187)"/>
<path d="M0 0 C4 1 4 1 4 1 Z " fill="#000000" transform="translate(80,187)"/>
<path d="M0 0 C4 1 4 1 4 1 Z " fill="#000000" transform="translate(423,186)"/>
<path d="M0 0 C1 4 1 4 1 4 Z " fill="#000000" transform="translate(236,185)"/>
<path d="M0 0 C4 1 4 1 4 1 Z " fill="#000000" transform="translate(109,186)"/>
<path d="M0 0 C1 4 1 4 1 4 Z " fill="#000000" transform="translate(199,184)"/>
<path d="M0 0 C1 4 1 4 1 4 Z " fill="#000000" transform="translate(275,183)"/>
<path d="M0 0 C1 4 1 4 1 4 Z " fill="#000000" transform="translate(343,182)"/>
<path d="M0 0 C1 4 1 4 1 4 Z " fill="#000000" transform="translate(237,181)"/>
<path d="M0 0 C1 4 1 4 1 4 Z " fill="#000000" transform="translate(198,180)"/>
<path d="M0 0 C1 4 1 4 1 4 Z " fill="#000000" transform="translate(274,179)"/>
<path d="M0 0 C1 4 1 4 1 4 Z " fill="#000000" transform="translate(238,177)"/>
<path d="M0 0 C1 4 1 4 1 4 Z " fill="#000000" transform="translate(197,176)"/>
<path d="M0 0 C1 4 1 4 1 4 Z " fill="#000000" transform="translate(273,175)"/>
<path d="M0 0 C1 4 1 4 1 4 Z " fill="#000000" transform="translate(55,175)"/>
<path d="M0 0 C1 4 1 4 1 4 Z " fill="#000000" transform="translate(316,174)"/>
<path d="M0 0 C1 4 1 4 1 4 Z " fill="#000000" transform="translate(239,173)"/>
<path d="M0 0 C1 4 1 4 1 4 Z " fill="#000000" transform="translate(346,172)"/>
<path d="M0 0 C1 4 1 4 1 4 Z " fill="#000000" transform="translate(196,172)"/>
<path d="M0 0 C1 4 1 4 1 4 Z " fill="#000000" transform="translate(166,172)"/>
<path d="M0 0 C4 1 4 1 4 1 Z " fill="#000000" transform="translate(76,164)"/>
<path d="M0 0 C4 1 4 1 4 1 Z " fill="#000000" transform="translate(425,163)"/>
<path d="M0 0 C4 1 4 1 4 1 Z " fill="#000000" transform="translate(80,163)"/>
<path d="M0 0 C4 1 4 1 4 1 Z " fill="#000000" transform="translate(421,162)"/>
<path d="M0 0 C4 1 4 1 4 1 Z " fill="#000000" transform="translate(386,162)"/>
<path d="M0 0 C3 1 3 1 3 1 Z " fill="#000000" transform="translate(332,416)"/>
<path d="M0 0 C3 1 3 1 3 1 Z " fill="#000000" transform="translate(339,414)"/>
<path d="M0 0 C3 1 3 1 3 1 Z " fill="#000000" transform="translate(155,414)"/>
<path d="M0 0 C3 1 3 1 3 1 Z " fill="#000000" transform="translate(149,412)"/>
<path d="M0 0 C3 1 3 1 3 1 Z " fill="#000000" transform="translate(352,410)"/>
<path d="M0 0 C3 1 3 1 3 1 Z " fill="#000000" transform="translate(355,409)"/>
<path d="M0 0 C3 1 3 1 3 1 Z " fill="#000000" transform="translate(137,408)"/>
<path d="M0 0 C3 1 3 1 3 1 Z " fill="#000000" transform="translate(366,405)"/>
<path d="" fill="#000000" transform="translate(0,0)"/>
<path d="" fill="#000000" transform="translate(0,0)"/>
<path d="" fill="#000000" transform="translate(0,0)"/>
<path d="" fill="#000000" transform="translate(0,0)"/>
<path d="" fill="#000000" transform="translate(0,0)"/>
<path d="" fill="#000000" transform="translate(0,0)"/>
<path d="" fill="#000000" transform="translate(0,0)"/>
<path d="M0 0 C3 1 3 1 3 1 Z " fill="#000000" transform="translate(369,375)"/>
<path d="M0 0 C3 1 3 1 3 1 Z " fill="#000000" transform="translate(134,375)"/>
<path d="" fill="#000000" transform="translate(0,0)"/>
<path d="M0 0 C3 1 3 1 3 1 Z " fill="#000000" transform="translate(127,373)"/>
<path d="" fill="#000000" transform="translate(0,0)"/>
<path d="M0 0 C3 1 3 1 3 1 Z " fill="#000000" transform="translate(382,371)"/>
<path d="M0 0 C3 1 3 1 3 1 Z " fill="#000000" transform="translate(121,371)"/>
<path d="M0 0 C3 1 3 1 3 1 Z " fill="#000000" transform="translate(385,370)"/>
<path d="" fill="#000000" transform="translate(0,0)"/>
<path d="M0 0 C3 1 3 1 3 1 Z " fill="#000000" transform="translate(388,369)"/>
<path d="M0 0 C3 1 3 1 3 1 Z " fill="#000000" transform="translate(391,368)"/>
<path d="" fill="#000000" transform="translate(0,0)"/>
<path d="" fill="#000000" transform="translate(0,0)"/>
<path d="M0 0 C3 1 3 1 3 1 Z " fill="#000000" transform="translate(400,365)"/>
<path d="M0 0 C3 1 3 1 3 1 Z " fill="#000000" transform="translate(461,327)"/>
<path d="M0 0 C3 1 3 1 3 1 Z " fill="#000000" transform="translate(418,299)"/>
<path d="M0 0 C3 1 3 1 3 1 Z " fill="#000000" transform="translate(103,299)"/>
<path d="M0 0 C3 1 3 1 3 1 Z " fill="#000000" transform="translate(72,299)"/>
<path d="M0 0 C3 1 3 1 3 1 Z " fill="#000000" transform="translate(421,298)"/>
<path d="M0 0 C3 1 3 1 3 1 Z " fill="#000000" transform="translate(146,298)"/>
<path d="M0 0 C3 1 3 1 3 1 Z " fill="#000000" transform="translate(365,296)"/>
<path d="" fill="#000000" transform="translate(0,0)"/>
<path d="" fill="#000000" transform="translate(0,0)"/>
<path d="" fill="#000000" transform="translate(0,0)"/>
<path d="" fill="#000000" transform="translate(0,0)"/>
<path d="" fill="#000000" transform="translate(0,0)"/>
<path d="" fill="#000000" transform="translate(0,0)"/>
<path d="" fill="#000000" transform="translate(0,0)"/>
<path d="" fill="#000000" transform="translate(0,0)"/>
<path d="" fill="#000000" transform="translate(0,0)"/>
<path d="" fill="#000000" transform="translate(0,0)"/>
<path d="" fill="#000000" transform="translate(0,0)"/>
<path d="" fill="#000000" transform="translate(0,0)"/>
<path d="" fill="#000000" transform="translate(0,0)"/>
<path d="" fill="#000000" transform="translate(0,0)"/>
<path d="" fill="#000000" transform="translate(0,0)"/>
<path d="" fill="#000000" transform="translate(0,0)"/>
<path d="" fill="#000000" transform="translate(0,0)"/>
<path d="" fill="#000000" transform="translate(0,0)"/>
<path d="" fill="#000000" transform="translate(0,0)"/>
<path d="" fill="#000000" transform="translate(0,0)"/>
<path d="" fill="#000000" transform="translate(0,0)"/>
<path d="" fill="#000000" transform="translate(0,0)"/>
<path d="" fill="#000000" transform="translate(0,0)"/>
<path d="" fill="#000000" transform="translate(0,0)"/>
<path d="" fill="#000000" transform="translate(0,0)"/>
<path d="" fill="#000000" transform="translate(0,0)"/>
<path d="" fill="#000000" transform="translate(0,0)"/>
<path d="" fill="#000000" transform="translate(0,0)"/>
<path d="" fill="#000000" transform="translate(0,0)"/>
<path d="" fill="#000000" transform="translate(0,0)"/>
<path d="" fill="#000000" transform="translate(0,0)"/>
<path d="" fill="#000000" transform="translate(0,0)"/>
<path d="" fill="#000000" transform="translate(0,0)"/>
<path d="" fill="#000000" transform="translate(0,0)"/>
<path d="" fill="#000000" transform="translate(0,0)"/>
<path d="" fill="#000000" transform="translate(0,0)"/>
<path d="M0 0 C3 1 3 1 3 1 Z " fill="#000000" transform="translate(406,245)"/>
<path d="" fill="#000000" transform="translate(0,0)"/>
<path d="" fill="#000000" transform="translate(0,0)"/>
<path d="" fill="#000000" transform="translate(0,0)"/>
<path d="" fill="#000000" transform="translate(0,0)"/>
<path d="" fill="#000000" transform="translate(0,0)"/>
<path d="M0 0 C3 1 3 1 3 1 Z " fill="#000000" transform="translate(384,238)"/>
<path d="" fill="#000000" transform="translate(0,0)"/>
<path d="M0 0 C3 1 3 1 3 1 Z " fill="#000000" transform="translate(102,238)"/>
<path d="M0 0 C3 1 3 1 3 1 Z " fill="#000000" transform="translate(381,237)"/>
<path d="" fill="#000000" transform="translate(0,0)"/>
<path d="" fill="#000000" transform="translate(0,0)"/>
<path d="" fill="#000000" transform="translate(0,0)"/>
<path d="" fill="#000000" transform="translate(0,0)"/>
<path d="" fill="#000000" transform="translate(0,0)"/>
<path d="" fill="#000000" transform="translate(0,0)"/>
<path d="" fill="#000000" transform="translate(0,0)"/>
<path d="" fill="#000000" transform="translate(0,0)"/>
<path d="" fill="#000000" transform="translate(0,0)"/>
<path d="" fill="#000000" transform="translate(0,0)"/>
<path d="M0 0 C3 1 3 1 3 1 Z " fill="#000000" transform="translate(415,220)"/>
<path d="" fill="#000000" transform="translate(0,0)"/>
<path d="M0 0 C3 1 3 1 3 1 Z " fill="#000000" transform="translate(75,220)"/>
<path d="" fill="#000000" transform="translate(0,0)"/>
<path d="M0 0 C3 1 3 1 3 1 Z " fill="#000000" transform="translate(406,217)"/>
<path d="M0 0 C3 1 3 1 3 1 Z " fill="#000000" transform="translate(403,216)"/>
<path d="" fill="#000000" transform="translate(0,0)"/>
<path d="" fill="#000000" transform="translate(0,0)"/>
<path d="" fill="#000000" transform="translate(0,0)"/>
<path d="" fill="#000000" transform="translate(0,0)"/>
<path d="" fill="#000000" transform="translate(0,0)"/>
<path d="" fill="#000000" transform="translate(0,0)"/>
<path d="" fill="#000000" transform="translate(0,0)"/>
<path d="" fill="#000000" transform="translate(0,0)"/>
<path d="" fill="#000000" transform="translate(0,0)"/>
<path d="" fill="#000000" transform="translate(0,0)"/>
<path d="" fill="#000000" transform="translate(0,0)"/>
<path d="" fill="#000000" transform="translate(0,0)"/>
<path d="" fill="#000000" transform="translate(0,0)"/>
<path d="" fill="#000000" transform="translate(0,0)"/>
<path d="" fill="#000000" transform="translate(0,0)"/>
<path d="" fill="#000000" transform="translate(0,0)"/>
<path d="" fill="#000000" transform="translate(0,0)"/>
<path d="" fill="#000000" transform="translate(0,0)"/>
<path d="" fill="#000000" transform="translate(0,0)"/>
<path d="" fill="#000000" transform="translate(0,0)"/>
<path d="" fill="#000000" transform="translate(0,0)"/>
<path d="" fill="#000000" transform="translate(0,0)"/>
<path d="" fill="#000000" transform="translate(0,0)"/>
<path d="" fill="#000000" transform="translate(0,0)"/>
<path d="M0 0 C3 1 3 1 3 1 Z " fill="#000000" transform="translate(77,188)"/>
<path d="" fill="#000000" transform="translate(0,0)"/>
<path d="" fill="#000000" transform="translate(0,0)"/>
<path d="" fill="#000000" transform="translate(0,0)"/>
<path d="" fill="#000000" transform="translate(0,0)"/>
<path d="" fill="#000000" transform="translate(0,0)"/>
<path d="" fill="#000000" transform="translate(0,0)"/>
<path d="" fill="#000000" transform="translate(0,0)"/>
<path d="" fill="#000000" transform="translate(0,0)"/>
<path d="" fill="#000000" transform="translate(0,0)"/>
<path d="" fill="#000000" transform="translate(0,0)"/>
<path d="" fill="#000000" transform="translate(0,0)"/>
<path d="" fill="#000000" transform="translate(0,0)"/>
<path d="" fill="#000000" transform="translate(0,0)"/>
<path d="" fill="#000000" transform="translate(0,0)"/>
<path d="" fill="#000000" transform="translate(0,0)"/>
<path d="M0 0 C3 1 3 1 3 1 Z " fill="#000000" transform="translate(70,166)"/>
<path d="M0 0 C3 1 3 1 3 1 Z " fill="#000000" transform="translate(73,165)"/>
<path d="M0 0 C3 1 3 1 3 1 Z " fill="#000000" transform="translate(429,164)"/>
<path d="M0 0 C3 1 3 1 3 1 Z " fill="#000000" transform="translate(126,164)"/>
<path d="M0 0 C3 1 3 1 3 1 Z " fill="#000000" transform="translate(383,163)"/>
<path d="M0 0 C2 1 2 1 2 1 Z " fill="#000000" transform="translate(364,406)"/>
<path d="M0 0 C2 1 2 1 2 1 Z " fill="#000000" transform="translate(132,406)"/>
<path d="M0 0 C2 1 2 1 2 1 Z " fill="#000000" transform="translate(369,404)"/>
<path d="M0 0 C2 1 2 1 2 1 Z " fill="#000000" transform="translate(374,402)"/>
<path d="M0 0 C2 1 2 1 2 1 Z " fill="#000000" transform="translate(122,402)"/>
<path d="" fill="#000000" transform="translate(0,0)"/>
<path d="M0 0 C2 1 2 1 2 1 Z " fill="#000000" transform="translate(111,397)"/>
<path d="" fill="#000000" transform="translate(0,0)"/>
<path d="" fill="#000000" transform="translate(0,0)"/>
<path d="" fill="#000000" transform="translate(0,0)"/>
<path d="" fill="#000000" transform="translate(0,0)"/>
<path d="M0 0 C2 1 2 1 2 1 Z " fill="#000000" transform="translate(401,389)"/>
<path d="M0 0 C2 1 2 1 2 1 Z " fill="#000000" transform="translate(93,388)"/>
<path d="" fill="#000000" transform="translate(0,0)"/>
<path d="M0 0 C2 1 2 1 2 1 Z " fill="#000000" transform="translate(408,385)"/>
<path d="" fill="#000000" transform="translate(0,0)"/>
<path d="" fill="#000000" transform="translate(0,0)"/>
<path d="" fill="#000000" transform="translate(0,0)"/>
<path d="" fill="#000000" transform="translate(0,0)"/>
<path d="" fill="#000000" transform="translate(0,0)"/>
<path d="" fill="#000000" transform="translate(0,0)"/>
<path d="" fill="#000000" transform="translate(0,0)"/>
<path d="M0 0 C2 1 2 1 2 1 Z " fill="#000000" transform="translate(98,363)"/>
<path d="M0 0 C2 1 2 1 2 1 Z " fill="#000000" transform="translate(411,361)"/>
<path d="M0 0 C2 1 2 1 2 1 Z " fill="#000000" transform="translate(83,357)"/>
<path d="M0 0 C2 1 2 1 2 1 Z " fill="#000000" transform="translate(51,342)"/>
<path d="M0 0 C2 1 2 1 2 1 Z " fill="#000000" transform="translate(49,341)"/>
<path d="M0 0 C2 1 2 1 2 1 Z " fill="#000000" transform="translate(40,336)"/>
<path d="" fill="#000000" transform="translate(0,0)"/>
<path d="M0 0 C2 1 2 1 2 1 Z " fill="#000000" transform="translate(401,331)"/>
<path d="M0 0 C2 1 2 1 2 1 Z " fill="#000000" transform="translate(464,328)"/>
<path d="M0 0 C2 1 2 1 2 1 Z " fill="#000000" transform="translate(143,298)"/>
<path d="M0 0 C2 1 2 1 2 1 Z " fill="#000000" transform="translate(363,295)"/>
<path d="" fill="#000000" transform="translate(0,0)"/>
<path d="" fill="#000000" transform="translate(0,0)"/>
<path d="" fill="#000000" transform="translate(0,0)"/>
<path d="" fill="#000000" transform="translate(0,0)"/>
<path d="" fill="#000000" transform="translate(0,0)"/>
<path d="" fill="#000000" transform="translate(0,0)"/>
<path d="" fill="#000000" transform="translate(0,0)"/>
<path d="" fill="#000000" transform="translate(0,0)"/>
<path d="" fill="#000000" transform="translate(0,0)"/>
<path d="" fill="#000000" transform="translate(0,0)"/>
<path d="" fill="#000000" transform="translate(0,0)"/>
<path d="" fill="#000000" transform="translate(0,0)"/>
<path d="" fill="#000000" transform="translate(0,0)"/>
<path d="M0 0 C2 1 2 1 2 1 Z " fill="#000000" transform="translate(397,278)"/>
<path d="" fill="#000000" transform="translate(0,0)"/>
<path d="" fill="#000000" transform="translate(0,0)"/>
<path d="" fill="#000000" transform="translate(0,0)"/>
<path d="" fill="#000000" transform="translate(0,0)"/>
<path d="" fill="#000000" transform="translate(0,0)"/>
<path d="M0 0 C2 1 2 1 2 1 Z " fill="#000000" transform="translate(362,270)"/>
<path d="" fill="#000000" transform="translate(0,0)"/>
<path d="" fill="#000000" transform="translate(0,0)"/>
<path d="" fill="#000000" transform="translate(0,0)"/>
<path d="" fill="#000000" transform="translate(0,0)"/>
<path d="" fill="#000000" transform="translate(0,0)"/>
<path d="M0 0 C2 1 2 1 2 1 Z " fill="#000000" transform="translate(417,249)"/>
<path d="" fill="#000000" transform="translate(0,0)"/>
<path d="M0 0 C2 1 2 1 2 1 Z " fill="#000000" transform="translate(415,248)"/>
<path d="" fill="#000000" transform="translate(0,0)"/>
<path d="" fill="#000000" transform="translate(0,0)"/>
<path d="" fill="#000000" transform="translate(0,0)"/>
<path d="" fill="#000000" transform="translate(0,0)"/>
<path d="" fill="#000000" transform="translate(0,0)"/>
<path d="" fill="#000000" transform="translate(0,0)"/>
<path d="" fill="#000000" transform="translate(0,0)"/>
<path d="M0 0 C2 1 2 1 2 1 Z " fill="#000000" transform="translate(379,236)"/>
<path d="" fill="#000000" transform="translate(0,0)"/>
<path d="" fill="#000000" transform="translate(0,0)"/>
<path d="M0 0 C2 1 2 1 2 1 Z " fill="#000000" transform="translate(73,221)"/>
<path d="" fill="#000000" transform="translate(0,0)"/>
<path d="" fill="#000000" transform="translate(0,0)"/>
<path d="" fill="#000000" transform="translate(0,0)"/>
<path d="M0 0 C2 1 2 1 2 1 Z " fill="#000000" transform="translate(392,212)"/>
<path d="" fill="#000000" transform="translate(0,0)"/>
<path d="" fill="#000000" transform="translate(0,0)"/>
<path d="" fill="#000000" transform="translate(0,0)"/>
<path d="M0 0 C2 1 2 1 2 1 Z " fill="#000000" transform="translate(435,190)"/>
<path d="" fill="#000000" transform="translate(0,0)"/>
<path d="" fill="#000000" transform="translate(0,0)"/>
<path d="" fill="#000000" transform="translate(0,0)"/>
<path d="" fill="#000000" transform="translate(0,0)"/>
<path d="" fill="#000000" transform="translate(0,0)"/>
<path d="" fill="#000000" transform="translate(0,0)"/>
<path d="" fill="#000000" transform="translate(0,0)"/>
<path d="" fill="#000000" transform="translate(0,0)"/>
<path d="" fill="#000000" transform="translate(0,0)"/>
<path d="" fill="#000000" transform="translate(0,0)"/>
<path d="" fill="#000000" transform="translate(0,0)"/>
<path d="" fill="#000000" transform="translate(0,0)"/>
<path d="" fill="#000000" transform="translate(0,0)"/>
<path d="" fill="#000000" transform="translate(0,0)"/>
<path d="" fill="#000000" transform="translate(0,0)"/>
<path d="M0 0 C2 1 2 1 2 1 Z " fill="#000000" transform="translate(437,167)"/>
<path d="M0 0 C2 1 2 1 2 1 Z " fill="#000000" transform="translate(375,167)"/>
<path d="M0 0 C2 1 2 1 2 1 Z " fill="#000000" transform="translate(68,167)"/>
<path d="M0 0 C2 1 2 1 2 1 Z " fill="#000000" transform="translate(435,166)"/>
<path d="M0 0 C2 1 2 1 2 1 Z " fill="#000000" transform="translate(379,165)"/>
<path d="M0 0 C2 1 2 1 2 1 Z " fill="#000000" transform="translate(245,165)"/>
<path d="M0 0 C2 1 2 1 2 1 Z " fill="#000000" transform="translate(129,165)"/>
<path d="M0 0 C2 1 2 1 2 1 Z " fill="#000000" transform="translate(381,164)"/>
<path d="" fill="#000000" transform="translate(0,0)"/>
<path d="" fill="#000000" transform="translate(0,0)"/>
<path d="" fill="#000000" transform="translate(0,0)"/>
<path d="" fill="#000000" transform="translate(0,0)"/>
<path d="" fill="#000000" transform="translate(0,0)"/>
<path d="" fill="#000000" transform="translate(0,0)"/>
<path d="" fill="#000000" transform="translate(0,0)"/>
<path d="" fill="#000000" transform="translate(0,0)"/>
<path d="" fill="#000000" transform="translate(0,0)"/>
<path d="" fill="#000000" transform="translate(0,0)"/>
<path d="" fill="#000000" transform="translate(0,0)"/>
<path d="" fill="#000000" transform="translate(0,0)"/>
<path d="" fill="#000000" transform="translate(0,0)"/>
<path d="" fill="#000000" transform="translate(0,0)"/>
<path d="" fill="#000000" transform="translate(0,0)"/>
<path d="" fill="#000000" transform="translate(0,0)"/>
<path d="" fill="#000000" transform="translate(0,0)"/>
<path d="" fill="#000000" transform="translate(0,0)"/>
<path d="" fill="#000000" transform="translate(0,0)"/>
<path d="" fill="#000000" transform="translate(0,0)"/>
<path d="" fill="#000000" transform="translate(0,0)"/>
<path d="" fill="#000000" transform="translate(0,0)"/>
<path d="" fill="#000000" transform="translate(0,0)"/>
<path d="" fill="#000000" transform="translate(0,0)"/>
<path d="" fill="#000000" transform="translate(0,0)"/>
<path d="" fill="#000000" transform="translate(0,0)"/>
<path d="" fill="#000000" transform="translate(0,0)"/>
<path d="" fill="#000000" transform="translate(0,0)"/>
<path d="" fill="#000000" transform="translate(0,0)"/>
<path d="" fill="#000000" transform="translate(0,0)"/>
<path d="" fill="#000000" transform="translate(0,0)"/>
<path d="" fill="#000000" transform="translate(0,0)"/>
<path d="" fill="#000000" transform="translate(0,0)"/>
<path d="" fill="#000000" transform="translate(0,0)"/>
<path d="" fill="#000000" transform="translate(0,0)"/>
<path d="" fill="#000000" transform="translate(0,0)"/>
<path d="" fill="#000000" transform="translate(0,0)"/>
<path d="" fill="#000000" transform="translate(0,0)"/>
<path d="" fill="#000000" transform="translate(0,0)"/>
<path d="" fill="#000000" transform="translate(0,0)"/>
<path d="" fill="#000000" transform="translate(0,0)"/>
<path d="" fill="#000000" transform="translate(0,0)"/>
<path d="" fill="#000000" transform="translate(0,0)"/>
<path d="" fill="#000000" transform="translate(0,0)"/>
<path d="" fill="#000000" transform="translate(0,0)"/>
<path d="" fill="#000000" transform="translate(0,0)"/>
<path d="" fill="#000000" transform="translate(0,0)"/>
<path d="" fill="#000000" transform="translate(0,0)"/>
<path d="" fill="#000000" transform="translate(0,0)"/>
<path d="" fill="#000000" transform="translate(0,0)"/>
<path d="" fill="#000000" transform="translate(0,0)"/>
<path d="" fill="#000000" transform="translate(0,0)"/>
<path d="" fill="#000000" transform="translate(0,0)"/>
<path d="" fill="#000000" transform="translate(0,0)"/>
<path d="" fill="#000000" transform="translate(0,0)"/>
<path d="" fill="#000000" transform="translate(0,0)"/>
<path d="" fill="#000000" transform="translate(0,0)"/>
<path d="" fill="#000000" transform="translate(0,0)"/>
<path d="" fill="#000000" transform="translate(0,0)"/>
<path d="" fill="#000000" transform="translate(0,0)"/>
<path d="" fill="#000000" transform="translate(0,0)"/>
<path d="" fill="#000000" transform="translate(0,0)"/>
<path d="" fill="#000000" transform="translate(0,0)"/>
<path d="" fill="#000000" transform="translate(0,0)"/>
<path d="" fill="#000000" transform="translate(0,0)"/>
<path d="" fill="#000000" transform="translate(0,0)"/>
<path d="" fill="#000000" transform="translate(0,0)"/>
<path d="" fill="#000000" transform="translate(0,0)"/>
<path d="" fill="#000000" transform="translate(0,0)"/>
<path d="" fill="#000000" transform="translate(0,0)"/>
<path d="" fill="#000000" transform="translate(0,0)"/>
<path d="" fill="#000000" transform="translate(0,0)"/>
<path d="" fill="#000000" transform="translate(0,0)"/>
<path d="" fill="#000000" transform="translate(0,0)"/>
<path d="" fill="#000000" transform="translate(0,0)"/>
<path d="" fill="#000000" transform="translate(0,0)"/>
<path d="" fill="#000000" transform="translate(0,0)"/>
<path d="" fill="#000000" transform="translate(0,0)"/>
<path d="" fill="#000000" transform="translate(0,0)"/>
<path d="" fill="#000000" transform="translate(0,0)"/>
<path d="" fill="#000000" transform="translate(0,0)"/>
<path d="" fill="#000000" transform="translate(0,0)"/>
<path d="" fill="#000000" transform="translate(0,0)"/>
<path d="" fill="#000000" transform="translate(0,0)"/>
<path d="" fill="#000000" transform="translate(0,0)"/>
<path d="" fill="#000000" transform="translate(0,0)"/>
<path d="" fill="#000000" transform="translate(0,0)"/>
<path d="" fill="#000000" transform="translate(0,0)"/>
<path d="" fill="#000000" transform="translate(0,0)"/>
<path d="" fill="#000000" transform="translate(0,0)"/>
<path d="" fill="#000000" transform="translate(0,0)"/>
<path d="" fill="#000000" transform="translate(0,0)"/>
<path d="" fill="#000000" transform="translate(0,0)"/>
<path d="" fill="#000000" transform="translate(0,0)"/>
<path d="" fill="#000000" transform="translate(0,0)"/>
<path d="" fill="#000000" transform="translate(0,0)"/>
<path d="" fill="#000000" transform="translate(0,0)"/>
<path d="" fill="#000000" transform="translate(0,0)"/>
<path d="" fill="#000000" transform="translate(0,0)"/>
<path d="" fill="#000000" transform="translate(0,0)"/>
<path d="" fill="#000000" transform="translate(0,0)"/>
<path d="" fill="#000000" transform="translate(0,0)"/>
<path d="" fill="#000000" transform="translate(0,0)"/>
<path d="" fill="#000000" transform="translate(0,0)"/>
<path d="" fill="#000000" transform="translate(0,0)"/>
<path d="" fill="#000000" transform="translate(0,0)"/>
<path d="" fill="#000000" transform="translate(0,0)"/>
<path d="" fill="#000000" transform="translate(0,0)"/>
<path d="" fill="#000000" transform="translate(0,0)"/>
<path d="" fill="#000000" transform="translate(0,0)"/>
<path d="" fill="#000000" transform="translate(0,0)"/>
<path d="" fill="#000000" transform="translate(0,0)"/>
<path d="" fill="#000000" transform="translate(0,0)"/>
<path d="" fill="#000000" transform="translate(0,0)"/>
<path d="" fill="#000000" transform="translate(0,0)"/>
<path d="" fill="#000000" transform="translate(0,0)"/>
<path d="" fill="#000000" transform="translate(0,0)"/>
<path d="" fill="#000000" transform="translate(0,0)"/>
<path d="" fill="#000000" transform="translate(0,0)"/>
<path d="" fill="#000000" transform="translate(0,0)"/>
<path d="" fill="#000000" transform="translate(0,0)"/>
<path d="" fill="#000000" transform="translate(0,0)"/>
<path d="" fill="#000000" transform="translate(0,0)"/>
<path d="" fill="#000000" transform="translate(0,0)"/>
<path d="" fill="#000000" transform="translate(0,0)"/>
<path d="" fill="#000000" transform="translate(0,0)"/>
<path d="" fill="#000000" transform="translate(0,0)"/>
<path d="" fill="#000000" transform="translate(0,0)"/>
<path d="" fill="#000000" transform="translate(0,0)"/>
<path d="" fill="#000000" transform="translate(0,0)"/>
<path d="" fill="#000000" transform="translate(0,0)"/>
<path d="" fill="#000000" transform="translate(0,0)"/>
<path d="" fill="#000000" transform="translate(0,0)"/>
<path d="" fill="#000000" transform="translate(0,0)"/>
<path d="" fill="#000000" transform="translate(0,0)"/>
<path d="" fill="#000000" transform="translate(0,0)"/>
</svg>
