<?xml version="1.0" encoding="UTF-8"?>
<svg version="1.1" xmlns="http://www.w3.org/2000/svg" width="512" height="512">
<path d="M0 0 C6.18548465 5.98872967 11.02292821 12.65108779 11.5 21.5 C11.01824141 30.43584482 6.10980099 36.86397668 0 43 C-0.47695313 43.50015625 -0.95390625 44.0003125 -1.4453125 44.515625 C-45.57803415 86.56879432 -135.57754026 84.34845382 -192 83 C-237.8410226 81.73772416 -289.53833062 75.86963922 -330 53 C-331.02351563 52.42507812 -332.04703125 51.85015625 -333.1015625 51.2578125 C-343.54891189 45.01242733 -351.10839974 37.67480077 -355 26 C-355.95068167 18.23869715 -354.025256 12.20871107 -349.4921875 5.90234375 C-336.16510902 -10.18313005 -315.41775598 -18.00554827 -296 -24 C-295.26491211 -24.23025879 -294.52982422 -24.46051758 -293.77246094 -24.69775391 C-215.86163079 -48.75585574 -109.53215819 -49.70739755 0 0 Z " fill="#000000" transform="translate(428,52)"/>
<path d="M0 0 C4.00096334 1.54677504 7.50462783 3.41615672 11.1875 5.625 C88.21219354 50.28483357 200.42258198 50.62051054 299.55848694 27.62149048 C321.30003373 21.79379684 343.70052652 14.26093112 362.20947266 1.12353516 C364 0 364 0 366 0 C366.11623967 9.86671865 366.20488986 19.73327237 366.25906086 29.60053825 C366.28507041 34.1831583 366.32030869 38.76530726 366.37719727 43.34765625 C366.43182783 47.77622177 366.46148542 52.20433636 366.47438622 56.63321304 C366.48357076 58.31641862 366.50150543 59.99960163 366.52865028 61.68261337 C366.709621 73.3761406 365.64575489 81.9519428 357.625 91 C310.62594007 134.41734719 226.35149389 136.93264497 166.02783203 134.86376953 C114.38917681 132.80854922 48.08665355 127.28704712 8 90.5625 C-0.49898622 81.00083812 -0.68469153 71.35734733 -0.48828125 59.1796875 C-0.47893928 57.46763142 -0.47182972 55.75556185 -0.46684265 54.04348755 C-0.44788144 49.56830008 -0.39887692 45.0939424 -0.34332275 40.61907959 C-0.29189336 36.04043803 -0.26927837 31.46166053 -0.24414062 26.8828125 C-0.1907456 17.92151326 -0.10556736 8.96082602 0 0 Z " fill="#000000" transform="translate(73,365)"/>
<path d="M0 0 C3.05268535 1.20047863 5.90320974 2.42313143 8.72265625 4.1015625 C48.57182372 27.33145759 95.60303298 35.7823239 141 40 C141.98299072 40.09716309 142.96598145 40.19432617 143.97875977 40.29443359 C156.55807052 41.37914233 169.19630257 41.24387583 181.8125 41.25 C183.6850647 41.25101212 183.6850647 41.25101212 185.59545898 41.25204468 C205.25688333 41.23518861 224.49672287 40.60693719 244 38 C245.3008252 37.83371094 246.60165039 37.66742188 247.94189453 37.49609375 C287.11677339 32.42392492 327.56372132 23.02542431 361.2265625 1.65234375 C364 0 364 0 366 0 C366.11623967 9.86671865 366.20488986 19.73327237 366.25906086 29.60053825 C366.28507041 34.1831583 366.32030869 38.76530726 366.37719727 43.34765625 C366.43182783 47.77622177 366.46148542 52.20433636 366.47438622 56.63321304 C366.48357076 58.31641862 366.50150543 59.99960163 366.52865028 61.68261337 C366.70590518 73.13604076 365.83446099 81.8878169 357.8125 90.6875 C315.02895623 129.74678625 242.15920747 134.67436379 187.02050781 134.39111328 C183.67011135 134.37402254 180.3204307 134.38422481 176.97005844 134.40143585 C123.74475643 134.6324552 49.40663618 129.95054119 9 91 C3.26172726 85.30924919 -0.32122255 79.5392555 -0.3732605 71.24253845 C-0.36247467 70.54769852 -0.35168884 69.85285858 -0.34057617 69.13696289 C-0.34101425 68.38491577 -0.34145233 67.63286865 -0.34190369 66.85803223 C-0.33982964 64.39596722 -0.31656524 61.93460087 -0.29296875 59.47265625 C-0.28736785 57.75630566 -0.28310008 56.03995025 -0.28010559 54.32359314 C-0.2686957 49.82394989 -0.23926206 45.32460089 -0.20599365 40.82507324 C-0.1752093 36.2265216 -0.16158243 31.62792204 -0.14648438 27.02929688 C-0.11438837 18.01940255 -0.06323906 9.00972582 0 0 Z " fill="#000000" transform="translate(73,122)"/>
<path d="M0 0 C1.75819081 0.95679802 3.51611458 1.91408677 5.27392578 2.87158203 C6.74238449 3.67113815 6.74238449 3.67113815 8.24050903 4.48684692 C10.3772899 5.65854003 12.50162912 6.84546807 14.6171875 8.0546875 C24.99789204 13.85493728 35.77657653 18.10725358 47 22 C47.87060059 22.30292969 48.74120117 22.60585938 49.63818359 22.91796875 C137.2441792 52.78846641 253.58274831 52.47827169 346.734375 10.71411133 C352.48547601 7.87083964 357.9305034 4.79899611 363.234375 1.1796875 C365 0 365 0 366 0 C366.06961852 9.91861278 366.12287141 19.83716709 366.15543652 29.75597477 C366.17106893 34.36206273 366.19226278 38.96798309 366.22631836 43.57397461 C366.25899847 48.02194801 366.27687125 52.46976054 366.28463173 56.91784477 C366.29015974 58.61185677 366.30095459 60.30586032 366.31719017 61.99980354 C366.33907983 64.37904775 366.34196217 66.75763362 366.34057617 69.13696289 C366.35675491 70.17922279 366.35675491 70.17922279 366.3732605 71.24253845 C366.32144631 79.50357982 362.52570969 86.06374562 357 92 C326.67182194 119.72424358 279.12018459 127.45728863 239.9375 132.25 C238.92857193 132.37462616 238.92857193 132.37462616 237.89926147 132.50177002 C219.81041613 134.7068009 201.83460327 135.20672403 183.625 135.1875 C182.03478531 135.18659363 182.03478531 135.18659363 180.41244507 135.18566895 C164.19268444 135.16061275 148.13063323 134.85386416 132 133 C130.85724609 132.87109375 129.71449219 132.7421875 128.53710938 132.609375 C89.3535549 128.03690187 43.20733254 120.35892858 12 94 C11.113125 93.38125 10.22625 92.7625 9.3125 92.125 C4.94637277 88.11288309 1.09027196 82.91224027 0 77 C-0.08892153 74.48275696 -0.1263483 71.99422321 -0.11352539 69.47753906 C-0.11374443 68.3501255 -0.11374443 68.3501255 -0.1139679 67.19993591 C-0.11327262 64.72180266 -0.10549826 62.24374508 -0.09765625 59.765625 C-0.0957907 58.04498333 -0.09436744 56.32434112 -0.09336853 54.60369873 C-0.08955413 50.07947315 -0.07973302 45.55527977 -0.06866455 41.03106689 C-0.05842729 36.41264278 -0.05386595 31.79421345 -0.04882812 27.17578125 C-0.0381098 18.11717337 -0.02104629 9.05858936 0 0 Z " fill="#000000" transform="translate(73,243)"/>
</svg>
